<?xml version="1.0"?>
<svg xmlns="http://www.w3.org/2000/svg" viewBox="0 0 64 64" width="512" height="512"><g id="Filled_outline" data-name="Filled outline"><rect x="11" y="38" width="10" height="21" style="fill:#f1c056"/><rect x="43" y="38" width="10" height="21" style="fill:#f1c056"/><rect x="25" y="38" width="14" height="21" style="fill:#f1c056"/><rect x="10" y="14" width="44" height="12" style="fill:#f1c056"/><rect x="21" y="38" width="4" height="23" style="fill:#dd3e46"/><rect x="7" y="38" width="4" height="23" style="fill:#dd3e46"/><path d="M60.828,34H3.1c4.976,0,6.9-8,6.9-8H54S55.851,34,60.828,34Z" style="fill:#ad6327"/><polygon points="42.998 26 48.998 26 49.998 34 43.998 34 42.998 26" style="fill:#d3843d"/><polygon points="20.998 26 14.998 26 13.998 34 19.998 34 20.998 26" style="fill:#d3843d"/><path d="M60.828,14H3.1C8.074,14,11,6,11,6H53S55.851,14,60.828,14Z" style="fill:#ad6327"/><polygon points="42.998 6 48.998 6 49.998 14 43.998 14 42.998 6" style="fill:#d3843d"/><polygon points="32 26 27 26 26 34 32 34 38 34 37 26 32 26" style="fill:#d3843d"/><polygon points="38 14 37 6 32 6 27 6 26 14 32 14 38 14" style="fill:#d3843d"/><polygon points="20.998 6 14.998 6 13.998 14 19.998 14 20.998 6" style="fill:#d3843d"/><rect x="7" y="34" width="50" height="4" style="fill:#66342e"/><rect x="31" y="38" width="2" height="4" style="fill:#66342e"/><path d="M29,48a2,2,0,0,0,2,2h2a2,2,0,0,0,2-2V46H29Z" style="fill:#dd3e46"/><path d="M29,44a2,2,0,0,1,2-2h2a2,2,0,0,1,2,2v2H29Z" style="fill:#fff69a"/><rect x="11" y="42" width="10" height="12" style="fill:#fff69a"/><polygon points="21 45 17 45 17 42 15 42 15 45 11 45 11 47 15 47 15 54 17 54 17 47 21 47 21 45" style="fill:#66342e"/><rect x="53" y="38" width="4" height="23" style="fill:#dd3e46"/><rect x="39" y="38" width="4" height="23" style="fill:#dd3e46"/><rect x="43" y="42" width="10" height="12" style="fill:#fff69a"/><polygon points="53 45 49 45 49 42 47 42 47 45 43 45 43 47 47 47 47 54 49 54 49 47 53 47 53 45" style="fill:#66342e"/><rect x="10" y="14" width="10" height="4" style="fill:#f1d77e"/><rect x="10" y="18" width="10" height="4" style="fill:#fef59c"/><rect x="20" y="14" width="8" height="4" style="fill:#fef59c"/><rect x="20" y="18" width="8" height="4" style="fill:#f1d77e"/><rect x="44" y="14" width="10" height="4" transform="translate(98 32) rotate(-180)" style="fill:#f1d77e"/><rect x="44" y="18" width="10" height="4" transform="translate(98 40) rotate(-180)" style="fill:#fef59c"/><rect x="36" y="14" width="8" height="4" transform="translate(80 32) rotate(-180)" style="fill:#fef59c"/><rect x="17" y="34" width="8" height="4" style="fill:#b5554e"/><rect x="39" y="34" width="8" height="4" transform="translate(86 72) rotate(-180)" style="fill:#b5554e"/><rect x="36" y="18" width="8" height="4" transform="translate(80 40) rotate(-180)" style="fill:#f1d77e"/><rect x="28" y="14" width="8" height="12" style="fill:#dd3e46"/><path d="M11,7C8.925,7,5,5.955,5,2H7c0,2.966,3.837,3,4,3Z" style="fill:#66342e"/><path d="M53,7l0-2c.164,0,4-.057,4-3h2C59,5.955,55.075,7,53,7Z" style="fill:#66342e"/><rect x="31" y="17" width="2" height="2" style="fill:#f1d77e"/><rect x="31" y="21" width="2" height="2" style="fill:#f1d77e"/><rect x="29" y="34" width="6" height="4" style="fill:#dd3e46"/><path d="M61,33h-.172c-3.851,0-5.6-6.246-5.828-7.122V15h6a1,1,0,0,0,0-2h-.172c-2.939,0-5.284-3.741-6.391-6.146C56.5,6.456,59,5.157,59,2H57c0,2.943-3.839,3-4,3H11c-.163,0-4-.034-4-3H5C5,5.151,7.49,6.452,9.552,6.852,8.418,9.259,6.024,13,3,13a1,1,0,0,0,0,2H9V25.869C8.761,26.742,6.9,33,3,33a1,1,0,0,0,0,2H6V61a1,1,0,0,0,1,1h4a1,1,0,0,0,1-1V60h8v1a1,1,0,0,0,1,1h4a1,1,0,0,0,1-1V60H38v1a1,1,0,0,0,1,1h4a1,1,0,0,0,1-1V60h8v1a1,1,0,0,0,1,1h4a1,1,0,0,0,1-1V35h3a1,1,0,0,0,0-2ZM52,45H49V43h3Zm-5,0H44V43h3Zm-3,2h3v6H44Zm5,0h3v6H49Zm3-6H44V39h8Zm-6-4H40V35h6ZM30,37V35h4v2Zm-4,0V35h2v2Zm-6,8H17V43h3Zm-5,0H12V43h3Zm-3,2h3v6H12Zm5,0h3v6H17Zm3-6H12V39h8Zm-2-4V35h6v2ZM35,15V25H29V15Zm2.115,0H43v2H37V15Zm5.75,18H38.883l-.75-6h3.982ZM33,33V27h3.115l.75,6Zm-5.867,0,.75-6H31v6Zm-5.252-6h3.984l-.75,6H21.131ZM21,19h6v2H21Zm22,2H37V19h6Zm-6,4V23H53v2Zm16-4H45V19h8ZM26.881,15H27v2H21V15ZM19,21H11V19h8Zm-8,2H27v2H11Zm4.881,4h3.984l-.75,6H15.131ZM36,35h2v2H36Zm8.881-2-.75-6h3.984l.75,6Zm5.25-6h3.1a15.484,15.484,0,0,0,3.235,6h-5.59ZM53,17H45V15h8ZM52.319,7a18.154,18.154,0,0,0,3.944,6H50.881l-.75-6Zm-4.2,0,.75,6H44.881l-.75-6Zm-6,0,.75,6H38.883l-.75-6Zm-6,0,.75,6H33V7ZM31,7v6H27.133l.75-6ZM25.865,7l-.75,6H21.131l.75-6Zm-6,0-.75,6H15.131l.75-6Zm-8.19,0h2.19l-.75,6H7.679A18.368,18.368,0,0,0,11.675,7Zm7.19,8H19v2H11V15ZM10.757,27h3.108l-.75,6H7.47A15.642,15.642,0,0,0,10.757,27ZM16,35v2H8V35ZM10,60H8V39h2Zm2-2V55h8v3Zm12,2H22V39h2Zm2-2V39h5v2a3,3,0,0,0-3,3v4a3,3,0,0,0,3,3h2a3,3,0,0,0,3-3V44a3,3,0,0,0-3-3V39h5V58Zm4-11h4v1a1,1,0,0,1-1,1H31a1,1,0,0,1-1-1Zm4-2H30V44a1,1,0,0,1,1-1h2a1,1,0,0,1,1,1Zm8,15H40V39h2Zm2-2V55h8v3Zm12,2H54V39h2Zm0-23H48V35h8Z"/><rect x="31" y="17" width="2" height="2"/><rect x="31" y="21" width="2" height="2"/></g></svg>
