<svg xmlns="http://www.w3.org/2000/svg" xmlns:xlink="http://www.w3.org/1999/xlink" version="1.1" x="0px" y="0px" viewBox="0 0 512 640" style="enable-background:new 0 0 512 512;" xml:space="preserve"><g><g><g><g><g><path d="M256,512c-91.279,0-162.781-34.389-162.781-78.289c0-32.757,40.563-61.418,103.34-73.02       c2.269-0.424,4.578,0.432,6.035,2.215c17.309,21.188,36.786,45.458,52.717,69.666c14.442-21.945,31.924-44.08,53.231-69.86       c1.455-1.759,3.738-2.603,5.994-2.189c63.328,11.495,104.246,40.224,104.246,73.188C418.781,477.611,347.279,512,256,512z        M195.196,373.809c-53.604,10.655-89.353,34.508-89.353,59.902c0,35.594,68.764,65.663,150.156,65.663       c81.393,0,150.157-30.069,150.157-65.663c0-25.586-36.109-49.514-90.252-60.084c-22.586,27.409-40.689,50.645-55.238,73.984       c-1.152,1.85-3.178,2.975-5.356,2.975h-0.003c-2.178,0-4.204-1.125-5.356-2.977       C234.252,422.397,213.66,396.461,195.196,373.809z"/></g><g><path d="M255.31,450.586h-0.003c-2.18,0-4.204-1.127-5.356-2.977c-16.368-26.289-38.072-53.383-57.135-76.715       c-3.777-4.625-7.576-9.251-11.376-13.878c-16.167-19.688-32.884-40.045-47.595-59.991       c-24.841-33.677-53.355-77.926-53.355-121.549C80.49,78.718,159.207,0,255.962,0C352.76,0,431.51,78.718,431.51,175.476       c0,46.818-30.363,93.895-75.957,150.178c-8.057,9.945-16.484,20.074-24.635,29.869c-4.221,5.074-8.445,10.15-12.645,15.232       c-23.691,28.665-42.555,52.705-57.607,76.855C259.514,449.461,257.49,450.586,255.31,450.586z M255.962,12.625       c-89.793,0-162.847,73.055-162.847,162.851c0,31.166,15.695,66.341,50.889,114.055c14.517,19.682,31.129,39.91,47.194,59.473       c3.806,4.636,7.611,9.271,11.395,13.903c17.313,21.19,36.792,45.465,52.717,69.665c14.442-21.947,31.926-44.08,53.231-69.86       c4.207-5.091,8.441-10.179,12.672-15.263c8.125-9.765,16.525-19.86,24.529-29.742c43.902-54.196,73.143-99.124,73.143-142.231       C418.885,85.681,345.797,12.625,255.962,12.625z"/></g></g></g><g><g><path d="M339.293,280.057h-113.98c-2.421,0-4.383-1.965-4.383-4.386V91.546c0-2.42,1.962-4.383,4.383-4.383h113.98      c2.422,0,4.387,1.963,4.387,4.383v184.125C343.68,278.092,341.715,280.057,339.293,280.057z M229.697,271.29H334.91V95.932      H229.697V271.29z"/></g><g><path d="M321.76,95.932h-78.912c-2.421,0-4.384-1.962-4.384-4.385V74.012c0-2.421,1.963-4.383,4.384-4.383h78.912      c2.42,0,4.383,1.962,4.383,4.383v17.535C326.143,93.969,324.18,95.932,321.76,95.932z M247.234,87.163h70.141v-8.769h-70.141      V87.163z"/></g><g><path d="M225.313,280.057h-52.606c-2.421,0-4.384-1.965-4.384-4.386V135.387c0-2.421,1.963-4.385,4.384-4.385h52.606      c2.421,0,4.384,1.964,4.384,4.385v140.284C229.697,278.092,227.734,280.057,225.313,280.057z M177.089,271.29h43.841v-131.52      h-43.841V271.29z"/></g><rect x="242.848" y="104.698" width="8.769" height="8.769"/><rect x="260.385" y="104.698" width="8.768" height="8.769"/><rect x="277.92" y="104.698" width="8.768" height="8.769"/><rect x="295.455" y="104.698" width="8.77" height="8.769"/><rect x="312.99" y="104.698" width="8.77" height="8.769"/><rect x="242.848" y="122.235" width="8.769" height="8.767"/><rect x="260.385" y="122.235" width="8.768" height="8.767"/><rect x="277.92" y="122.235" width="8.768" height="8.767"/><rect x="295.455" y="122.235" width="8.77" height="8.767"/><rect x="312.99" y="122.235" width="8.77" height="8.767"/><rect x="242.848" y="139.771" width="8.769" height="8.769"/><rect x="260.385" y="139.771" width="8.768" height="8.769"/><rect x="277.92" y="139.771" width="8.768" height="8.769"/><rect x="295.455" y="139.771" width="8.77" height="8.769"/><rect x="312.99" y="139.771" width="8.77" height="8.769"/><rect x="242.848" y="157.305" width="8.769" height="8.769"/><rect x="260.385" y="157.305" width="8.768" height="8.769"/><rect x="277.92" y="157.305" width="8.768" height="8.769"/><rect x="295.455" y="157.305" width="8.77" height="8.769"/><rect x="312.99" y="157.305" width="8.77" height="8.769"/><rect x="242.848" y="174.842" width="8.769" height="8.767"/><rect x="260.385" y="174.842" width="8.768" height="8.767"/><rect x="277.92" y="174.842" width="8.768" height="8.767"/><rect x="295.455" y="174.842" width="8.77" height="8.767"/><rect x="312.99" y="174.842" width="8.77" height="8.767"/><rect x="242.848" y="192.379" width="8.769" height="8.767"/><rect x="260.385" y="192.379" width="8.768" height="8.767"/><rect x="277.92" y="192.379" width="8.768" height="8.767"/><rect x="295.455" y="192.379" width="8.77" height="8.767"/><rect x="312.99" y="192.379" width="8.77" height="8.767"/><rect x="242.848" y="209.912" width="8.769" height="8.771"/><rect x="260.385" y="209.912" width="8.768" height="8.771"/><rect x="277.92" y="209.912" width="8.768" height="8.771"/><rect x="295.455" y="209.912" width="8.77" height="8.771"/><rect x="312.99" y="209.912" width="8.77" height="8.771"/><g><path d="M299.838,280.057H264.77c-2.422,0-4.385-1.965-4.385-4.386v-43.836c0-2.422,1.963-4.385,4.385-4.385h35.068      c2.422,0,4.387,1.963,4.387,4.385v43.836C304.225,278.092,302.26,280.057,299.838,280.057z M269.152,271.29h26.303v-35.074      h-26.303V271.29z"/></g><g><path d="M190.242,280.057c-2.422,0-4.384-1.965-4.384-4.386V152.922c0-2.42,1.962-4.383,4.384-4.383      c2.42,0,4.385,1.962,4.385,4.383v122.749C194.626,278.092,192.662,280.057,190.242,280.057z"/></g><g><path d="M207.778,280.057c-2.423,0-4.385-1.965-4.385-4.386V152.922c0-2.42,1.962-4.383,4.385-4.383      c2.421,0,4.384,1.962,4.384,4.383v122.749C212.162,278.092,210.199,280.057,207.778,280.057z"/></g><g><path d="M356.83,280.057H155.171c-2.423,0-4.386-1.965-4.386-4.386s1.963-4.381,4.386-4.381H356.83      c2.422,0,4.385,1.96,4.385,4.381S359.252,280.057,356.83,280.057z"/></g></g></g></g></svg>