<svg xmlns="http://www.w3.org/2000/svg" xmlns:xlink="http://www.w3.org/1999/xlink" version="1.1" x="0px" y="0px" viewBox="0 0 100 125" width="100px" height="100px" style="enable-background:new 0 0 100 100;" xml:space="preserve"><g><path d="M44,68.3c0.8,0.4,1.7,0.1,2.5-0.2c0.4-0.2,0.9-0.3,1.2-0.3c0.2,0,0.3,0.1,0.5,0.6c0.3,0.6,0.8,1.5,2.1,1.5c0,0,0,0,0,0   c0,0,0,0,0,0c0,0,0,0,0,0c0,0,0,0,0,0c1.3,0,1.8-0.9,2.1-1.5c0.2-0.4,0.3-0.6,0.5-0.6c0.4,0,0.8,0.1,1.2,0.3   c0.8,0.3,1.7,0.6,2.5,0.2c1.3-0.6,1.1-3.4,1.1-4c0-0.3-0.3-0.5-0.5-0.4c-0.3,0-0.5,0.3-0.4,0.5c0.1,1.1,0,2.8-0.5,3   c-0.5,0.2-1.1,0-1.7-0.2c-0.5-0.2-1-0.4-1.6-0.4c-0.8,0-1.1,0.6-1.4,1.1c-0.3,0.6-0.6,1-1.3,1c-0.7,0-1-0.4-1.3-1   c-0.3-0.5-0.6-1.1-1.4-1.1c-0.5,0-1,0.2-1.6,0.4c-0.6,0.2-1.3,0.4-1.7,0.2c-0.5-0.2-0.6-1.9-0.5-3c0-0.3-0.2-0.5-0.4-0.5   c-0.3,0-0.5,0.2-0.5,0.4C42.9,64.9,42.7,67.7,44,68.3z"/><path d="M50.4,6.4L50.4,6.4C19.3,5.5,17.2,39.1,18.2,48.8c0.1,1,0.5,2.1,1,3c-0.4,0.5-0.7,1.2-0.9,1.9c-1.2,4.9,2.9,13.1,5.5,15.6   c0.6,0.5,1.1,0.8,1.5,0.8c0,0,0,0,0.1,0c-0.3,1-0.5,2-0.5,3c0.1,2.6,2.4,4.5,5,4l0.7-0.3c0.2,0.3,0.3,0.5,0.5,0.7   c2.5,3.5,5.4,6.8,8.2,9.8l0.4,0.4c1,1.1,1.9,2.1,3,3.1c2,1.8,4.8,1.7,7.3,1.6l0.1,0c0.6,0,1.3,0,1.9,0c0.5,0,1,0,1.5,0   c1.7,0,3.5-0.2,5-1.3c1.8-1.4,9.8-10.4,12.4-14.2l0.1,0c2.5,0.5,4.9-1.4,5-4c0-1-0.2-2-0.5-3c0.4-0.1,0.8-0.3,1.2-0.8   c2.7-2.6,6.7-10.7,5.5-15.6c-0.2-0.6-0.4-1.2-0.7-1.7c0.6-1.1,1-2.2,1.2-3.3C83.6,39,81.5,5.3,50.4,6.4z M25.4,69.2   C25.3,69.2,25.3,69.2,25.4,69.2c-1,0-5-5.7-6-11.2c-0.3-1.7-0.4-3.7,0.4-5.1c1.2,1.9,2.8,3.7,4,5.4c0.2,0.4,0.5,0.7,0.7,1.1   c1.3,2.1,1.9,4.6,1.7,7.1c0,0.5-0.1,1-0.2,1.4c-0.1,0.4-0.1,0.8-0.2,1.2C25.6,69.1,25.5,69.2,25.4,69.2z M81.2,58   c-1,5.5-5,11.2-6,11.2c0,0,0,0,0,0c-0.1-0.5-0.2-1-0.3-1.4c-0.1-0.5-0.1-0.9-0.2-1.4c-0.2-2.5,0.3-5,1.7-7.1   c0.2-0.4,0.5-0.7,0.7-1.1c1.1-1.6,2.6-3.3,3.8-5.1C81.6,54.5,81.5,56.4,81.2,58z M72.7,64.2l-0.2,1.4c-1,5.2-2.3,11-2.7,11l0.1,0.1   c-2.6,3.7-10.3,12.5-12,13.8c-1.6,1.2-3.7,1.1-5.8,1.1c-0.7,0-1.4,0-2,0l-0.1,0c-2.3,0.1-4.8,0.2-6.6-1.3c-1-0.9-2-2-3-3L40,86.7   c-2.7-3-5.6-6.2-8.1-9.7c-0.4-0.5-0.6-0.9-0.9-1.3c-1-1.9-2.4-10.4-3.2-16.2l-0.1-1c0,0,2.8-6.7,9.3-7.7c-2.2,0.7-3.1,1.6-3.1,1.7   c-0.2,0.2-0.1,0.5,0.1,0.7c0.1,0.1,0.2,0.1,0.3,0.1c0.1,0,0.3-0.1,0.4-0.2c0,0,0.6-0.7,2.4-1.3c0,0.7,0.3,1.4,0.8,2   c1.1,1.1,2.9,1.1,4,0c0.7-0.7,1-1.7,0.7-2.7c0.9,0,1.8,0.1,2.9,0.2c0.3,0,0.5-0.2,0.5-0.5c0-0.1,0-0.2-0.1-0.3c1.6,0,2.8,0,4.3,0v0   c0.9,0,1.6,0,2.4,0L53.1,62c0,0.3,0.2,0.5,0.5,0.5c0,0,0,0,0,0c0.3,0,0.5-0.2,0.5-0.5l-0.4-11.6c0.4,0,0.8,0,1.3,0   c0,0.1-0.1,0.2-0.1,0.3c0,0.3,0.3,0.5,0.5,0.5c1.1-0.1,2-0.1,2.9-0.1c-0.2,0.9,0,1.9,0.7,2.7c1.1,1.1,2.9,1.1,4,0   c0.5-0.5,0.8-1.2,0.8-2c1.8,0.6,2.4,1.3,2.4,1.3c0.1,0.1,0.2,0.2,0.4,0.2c0.1,0,0.2,0,0.3-0.1c0.2-0.2,0.2-0.5,0.1-0.7   c-0.1-0.1-0.8-0.9-2.7-1.6c6,1.4,8.6,7.5,8.6,7.5L72.7,64.2z"/><path d="M55.2,79.8c-1.9,1.5-5,1.9-7.6,1.1c-0.7-0.2-1.3-0.6-1.9-1c0,0-0.1-0.1-0.1-0.1c-0.2-0.2-0.5-0.1-0.7,0.1   c-0.2,0.2-0.1,0.5,0.1,0.7c0.1,0,0.1,0.1,0.2,0.1c0.7,0.5,1.4,0.8,2.1,1.1c1,0.3,2.1,0.5,3.1,0.5c2,0,4-0.6,5.4-1.7   c0.2-0.2,0.3-0.5,0.1-0.7C55.8,79.7,55.5,79.6,55.2,79.8z"/><path d="M58.5,75.4c-0.1-0.2-0.4-0.2-0.6-0.1c-0.3,0.1-0.7,0.2-1.2,0.3c0-0.1-0.1-0.1-0.2-0.2c-1.3-0.6-3.2-1.7-3.2-1.7   c-0.1-0.1-0.3-0.1-0.4,0c-1.4,0.4-2.1,0.7-2.5,0.8c-0.3-0.1-1-0.4-2.5-0.8c-0.1,0-0.3,0-0.4,0c0,0-2,1.1-3.3,1.7   c-0.1,0-0.1,0.1-0.2,0.1c-0.5-0.1-0.9-0.2-1.2-0.3c-0.2-0.1-0.4,0-0.6,0.1l-1.2,1.5c-0.2,0.2-0.2,0.5,0.1,0.7   c0.1,0.1,0.2,0.1,0.3,0.1c0.1,0,0.3-0.1,0.4-0.2l1-1.2c1.9,0.5,6.8,0.5,7.5,0.5c0,0,0,0,0,0c0,0,0,0,0,0s0,0,0,0c0,0,0,0,0,0   c0,0,0,0,0,0c0.7,0,5.6,0,7.5-0.5l1,1.2c0.1,0.1,0.2,0.2,0.4,0.2c0.1,0,0.2,0,0.3-0.1c0.2-0.2,0.2-0.5,0.1-0.7L58.5,75.4z"/><path d="M66.9,65L64.5,68c-0.1,0.1-0.1,0.2-0.1,0.3v7.9c0,0.3,0.2,0.5,0.5,0.5s0.5-0.2,0.5-0.5v-7.8l2.2-2.9   c0.2-0.2,0.1-0.5-0.1-0.7C67.3,64.7,67,64.7,66.9,65z"/><path d="M33.8,65c-0.2-0.2-0.5-0.3-0.7-0.1c-0.2,0.2-0.3,0.5-0.1,0.7l2.2,2.9v7.8c0,0.3,0.2,0.5,0.5,0.5s0.5-0.2,0.5-0.5v-7.9   c0-0.1,0-0.2-0.1-0.3L33.8,65z"/></g></svg>