<svg xmlns="http://www.w3.org/2000/svg" height="512pt" version="1.1" viewBox="0 -40 512.00021 512" width="512pt">
<g id="surface1">
<path d="M 501.480469 168.554688 L 456.964844 420.964844 L 55.667969 420.964844 L 10.621094 168.554688 Z M 501.480469 168.554688 " style=" stroke:none;fill-rule:nonzero;fill:rgb(0%,67.45098%,91.764706%);fill-opacity:1;" />
<path d="M 462.675781 56.253906 L 462.675781 168.554688 L 422.070312 168.554688 L 422.070312 98.339844 L 90.035156 98.339844 L 90.035156 168.554688 L 53.660156 168.554688 L 47.632812 10.363281 L 209.632812 10.363281 L 256.792969 56.253906 Z M 462.675781 56.253906 " style=" stroke:none;fill-rule:nonzero;fill:rgb(0%,93.72549%,81.960784%);fill-opacity:1;" />
<path d="M 422.070312 168.132812 L 422.070312 168.554688 L 90.035156 168.554688 L 90.035156 98.339844 L 422.070312 98.339844 Z M 422.070312 168.132812 " style=" stroke:none;fill-rule:nonzero;fill:rgb(99.607843%,85.882353%,25.490196%);fill-opacity:1;" />
<path d="M 501.480469 157.558594 L 472.824219 157.558594 L 472.824219 56.253906 C 472.824219 50.441406 468.492188 45.46875 462.675781 45.46875 L 261.128906 45.46875 L 217.035156 2.855469 C 215.023438 0.953125 212.378906 0 209.632812 0 L 47.632812 0 C 44.777344 0 42.027344 1.058594 40.019531 3.171875 C 38.011719 5.289062 36.953125 7.824219 37.058594 10.679688 L 42.664062 157.558594 L 10.621094 157.558594 C 7.449219 157.558594 4.488281 159.144531 2.480469 161.574219 C 0.472656 164.007812 -0.375 167.285156 0.152344 170.351562 L 45.199219 422.867188 C 46.152344 427.941406 50.488281 431.539062 55.5625 431.539062 L 456.964844 431.539062 C 462.148438 431.539062 466.480469 427.945312 467.328125 422.867188 L 511.847656 170.351562 C 512.375 167.285156 511.527344 163.902344 509.519531 161.574219 C 507.507812 159.144531 504.550781 157.558594 501.480469 157.558594 Z M 58.628906 21.148438 L 205.402344 21.148438 L 249.496094 63.761719 C 251.503906 65.667969 254.148438 66.617188 256.898438 66.617188 L 451.675781 66.617188 L 451.675781 157.558594 L 432.644531 157.558594 L 432.644531 98.339844 C 432.644531 92.527344 427.886719 87.765625 422.070312 87.765625 L 90.035156 87.765625 C 84.21875 87.765625 79.460938 92.523438 79.460938 98.339844 L 79.460938 157.558594 L 63.917969 157.558594 Z M 411.496094 157.558594 L 100.609375 157.558594 L 100.609375 108.914062 L 411.496094 108.914062 Z M 448.082031 410.285156 L 64.550781 410.285156 L 23.3125 178.707031 L 488.898438 178.707031 Z M 448.082031 410.285156 " style=" stroke:none;fill-rule:nonzero;fill:rgb(3.137255%,21.960784%,38.823529%);fill-opacity:1;" />
<path d="M 314 273.242188 C 309.875 269.117188 303.214844 269.117188 299.089844 273.242188 C 294.964844 277.363281 294.964844 284.027344 299.089844 288.148438 L 313.152344 302.214844 C 326.792969 315.75 326.6875 338.0625 313.152344 351.808594 C 306.597656 358.363281 297.820312 361.957031 288.410156 361.957031 C 279 361.957031 270.117188 358.363281 263.558594 351.808594 L 249.496094 337.636719 C 245.371094 333.515625 238.710938 333.515625 234.585938 337.636719 C 230.460938 341.761719 230.460938 348.421875 234.585938 352.546875 L 248.652344 366.929688 C 259.332031 377.398438 273.5 383.214844 288.410156 383.214844 C 303.425781 383.214844 317.488281 377.398438 328.167969 366.824219 C 349.953125 344.722656 349.847656 309.085938 328.167969 287.304688 Z M 314 273.242188 " style=" stroke:none;fill-rule:nonzero;fill:rgb(3.137255%,21.960784%,38.823529%);fill-opacity:1;" />
<path d="M 223.695312 227.558594 C 233.105469 227.558594 241.988281 231.15625 248.546875 237.710938 L 262.609375 251.773438 C 266.734375 255.898438 273.394531 255.898438 277.519531 251.773438 C 281.640625 247.652344 281.640625 240.988281 277.519531 236.867188 L 263.453125 222.800781 C 252.773438 212.226562 238.605469 206.515625 223.695312 206.515625 C 208.679688 206.515625 194.617188 212.332031 183.9375 222.90625 C 162.152344 244.902344 162.152344 280.640625 183.9375 302.425781 L 198 316.59375 C 200.113281 318.710938 202.757812 319.660156 205.507812 319.660156 C 208.257812 319.660156 210.902344 318.605469 213.015625 316.59375 C 217.140625 312.472656 217.140625 305.808594 213.015625 301.683594 L 198.953125 287.410156 C 185.3125 273.875 185.417969 251.5625 198.953125 237.816406 C 205.507812 231.261719 214.285156 227.558594 223.695312 227.558594 Z M 223.695312 227.558594 " style=" stroke:none;fill-rule:nonzero;fill:rgb(3.137255%,21.960784%,38.823529%);fill-opacity:1;" />
<path d="M 274.238281 323.574219 C 276.988281 323.574219 279.632812 322.515625 281.75 320.507812 C 285.871094 316.382812 285.871094 309.722656 281.75 305.597656 L 245.371094 269.222656 C 241.25 265.097656 234.585938 265.097656 230.464844 269.222656 C 226.339844 273.347656 226.339844 280.007812 230.464844 284.132812 L 266.839844 320.507812 C 268.847656 322.621094 271.492188 323.574219 274.238281 323.574219 Z M 274.238281 323.574219 " style=" stroke:none;fill-rule:nonzero;fill:rgb(3.137255%,21.960784%,38.823529%);fill-opacity:1;" />
</g>
</svg>