<svg xmlns="http://www.w3.org/2000/svg" data-name="Layer 1" viewBox="0 0 64 80" width="100px" height="100px" x="0px" y="0px"><title>face with tongue2</title><path d="M27.89,15.92a.24.24,0,0,0-.17.31,96.3,96.3,0,0,1,3.91,15.56h0l0,.21a.27.27,0,0,0-.11.28q.07.36.12.72l.06.37a5.11,5.11,0,0,0,.13.53.27.27,0,0,0,.25.18.26.26,0,0,0,.25-.25C31.83,27.75,30,21.89,28.2,16.1a.26.26,0,0,0-.24-.19Zm3.75,15.92v-.05a.11.11,0,0,1,0,.05Z"/><path d="M29.46,17a.24.24,0,0,0-.18.3c.1.39.21.77.31,1.16,0,.11,0,.22.05.33h0v.05h0c.08.67.11,1.35.19,2a.27.27,0,0,0,.08.17.23.23,0,0,0,.17.08.23.23,0,0,0,.18-.08l0,0c.43,1.58.86,3.16,1.27,4.75a81.31,81.31,0,0,1,1.77,8.31.26.26,0,0,0,.12.15.24.24,0,0,0,.19,0,.24.24,0,0,0,.15-.11.32.32,0,0,0,0-.19,84.32,84.32,0,0,0-1.78-8.32c-.63-2.45-1.31-4.89-2-7.33l0-.09a5.46,5.46,0,0,0-.29-1,.27.27,0,0,0-.11-.15.28.28,0,0,0-.13,0Zm.19,1.84h0v0a.09.09,0,0,1,0,.05Z"/><path d="M31.06,17.74c.07.67.12,1.34.19,2a.25.25,0,0,0,.08.17.23.23,0,0,0,.17.08.25.25,0,0,0,.18-.08.09.09,0,0,0,0-.06,59,59,0,0,1,2,9v0c.19,1.39.32,2.78.39,4.18a.26.26,0,0,0,.25.25.25.25,0,0,0,.25-.25,52.89,52.89,0,0,0-1-7.73,62.76,62.76,0,0,0-2-7.61.27.27,0,0,0-.25-.19.26.26,0,0,0-.25.25ZM33.7,28.91v-.05s0,0,0,.05Z"/><path d="M31.28,15a.26.26,0,0,0,0,.36c.12.13.23.27.35.41a16.2,16.2,0,0,1,1.9,3.43v0A30.62,30.62,0,0,1,34.83,23a35.82,35.82,0,0,1,.85,4.22h0a20.33,20.33,0,0,1,.1,5.05v0A9.49,9.49,0,0,1,35.38,34a.26.26,0,0,0,.18.31.25.25,0,0,0,.3-.17,9.31,9.31,0,0,0,.43-1.95,15.74,15.74,0,0,0,.1-2.38c0-.88-.11-1.77-.22-2.65s-.3-1.91-.51-2.84-.44-1.84-.73-2.75A27.13,27.13,0,0,0,34,19a14.68,14.68,0,0,0-2.34-4,.23.23,0,0,0-.17-.07.32.32,0,0,0-.19.07Zm.32.74v0Z"/><path d="M32.47,16.26a.23.23,0,0,0,0,.35,9,9,0,0,1,1.13,1.18,13.79,13.79,0,0,1,1.65,2.92l0-.06A21.77,21.77,0,0,1,36.7,26.2v0a19.6,19.6,0,0,1,0,5h0a11,11,0,0,1-.65,2.58c0,.06-.05.11-.07.17a.31.31,0,0,0,0,.19.25.25,0,0,0,.31.17.24.24,0,0,0,.15-.11c.13-.3.25-.61.35-.91s.19-.7.27-1.06a14.64,14.64,0,0,0,.28-2.28A21.89,21.89,0,0,0,37,24.75a20.85,20.85,0,0,0-1.55-4.86,12.37,12.37,0,0,0-1.16-2,8.82,8.82,0,0,0-1.45-1.6.29.29,0,0,0-.18-.07.22.22,0,0,0-.17.07Zm1.1,1.5,0,0,0,0Z"/><path d="M35.09,14.44l-.15.36a4.34,4.34,0,0,0-.14.48c-.09.39-.15.79-.21,1.18a.34.34,0,0,0,0,.2.27.27,0,0,0,.15.11.27.27,0,0,0,.2,0,.24.24,0,0,0,.11-.15c0-.29.09-.57.14-.86A6.38,6.38,0,0,1,35.4,15q.27.3.51.6h0l0,0v0h0a15.93,15.93,0,0,1,1.81,3.22l0-.06a21.16,21.16,0,0,1,1.46,5.3v0a16.07,16.07,0,0,1,0,4,.17.17,0,0,0,0-.07,9.77,9.77,0,0,1-.63,2.43.08.08,0,0,1,0,0,7.51,7.51,0,0,1-.83,1.43,5.26,5.26,0,0,1-1,1l-.29.21a.25.25,0,0,0-.09.34.26.26,0,0,0,.34.09,6.18,6.18,0,0,0,.9-.72,6.82,6.82,0,0,0,.73-.88,7.41,7.41,0,0,0,1-2.25A11.34,11.34,0,0,0,39.82,27a16.81,16.81,0,0,0-.14-2.92,21.24,21.24,0,0,0-1.55-5.58,16.7,16.7,0,0,0-1.24-2.37,9.49,9.49,0,0,0-1.41-1.75.23.23,0,0,0-.17-.08.26.26,0,0,0-.22.12Zm3.5,16.08v0Zm.6-6.35v-.05a.07.07,0,0,0,0,.05Zm-3.25-8.51v0l0,0,0,0Z"/><path d="M24.78,17.93a9.77,9.77,0,0,0-.53.94c-.15.3-.28.62-.4.93A13.61,13.61,0,0,0,23.24,22a20.62,20.62,0,0,0-.31,2.23c-.08.85-.1,1.71-.1,2.57,0,1.63.09,3.25.18,4.88,0,.73.1,1.46.13,2.18a.33.33,0,0,0,0,.14c0,.36,0,.73.07,1.09s0,.68,0,1v.24a.25.25,0,0,0,.25.25.26.26,0,0,0,.25-.25v-.18c0-2-.19-4.1-.3-6.14a37,37,0,0,1,.13-6.82l0,.07c.09-.62.2-1.23.35-1.84a13,13,0,0,1,.6-1.83l0,.06a9.26,9.26,0,0,1,.75-1.43.25.25,0,0,0-.21-.38.26.26,0,0,0-.22.12Z"/><path d="M25.06,19.05c-.27.56-.55,1.11-.86,1.65a18.21,18.21,0,0,1-1,1.55v0l0,0,0,0h0c-.2.25-.41.51-.63.75s-.47.49-.72.72a.23.23,0,0,0,0,.35.25.25,0,0,0,.35,0,13.72,13.72,0,0,0,2.66-3.45v.05c-.08.71-.13,1.42-.17,2.13-.09,1.67-.12,3.33-.15,5s0,3.09-.07,4.63c0,.6,0,1.21-.05,1.82a10.73,10.73,0,0,1-.08,1.13h0a1.37,1.37,0,0,1-.07.34.19.19,0,0,0,0,.19.22.22,0,0,0,.14.11.27.27,0,0,0,.2,0,.27.27,0,0,0,.11-.15c0-.09,0-.18.07-.26s0-.31,0-.47c0-.47.06-1,.07-1.42.05-1.45.05-2.89.07-4.34,0-1.65.05-3.29.11-4.95,0-.78.07-1.57.12-2.35s.1-1.29.18-1.93h0q.06-.45.15-.9A.24.24,0,0,0,25.4,19a.28.28,0,0,0-.13,0,.21.21,0,0,0-.21.12Zm-1.92,3.22h0l0,0Z"/><path d="M21,19.59A68.51,68.51,0,0,0,19.83,30.1,71.8,71.8,0,0,0,20.29,41a.25.25,0,0,0,.43.18.26.26,0,0,0,.07-.18,71.07,71.07,0,0,1-.5-8.87A73.6,73.6,0,0,1,20.91,23h0c.15-1.09.32-2.17.52-3.25a.25.25,0,0,0-.17-.31H21.2a.25.25,0,0,0-.25.19Z"/><path d="M22,21.57c-.11,2.08-.28,4.16-.43,6.25-.18,2.4-.34,4.81-.43,7.23s-.1,4.87,0,7.31c.06,1.11.17,2.23.32,3.34a26.76,26.76,0,0,0,.6,3.09,16.51,16.51,0,0,0,1.06,2.93.27.27,0,0,0,.35.09.28.28,0,0,0,.11-.15.31.31,0,0,0,0-.19c-.09-.18-.17-.35-.25-.53a21.89,21.89,0,0,1-1.38-5.46v0a50.42,50.42,0,0,1-.39-6c0-2.12,0-4.24.15-6.36s.24-4.08.4-6.12c.13-1.81.27-3.62.37-5.43a.25.25,0,0,0-.25-.25.25.25,0,0,0-.25.25Zm0,23.91a.11.11,0,0,0,0,0v0Z"/><path d="M18,23.72A24.49,24.49,0,0,0,17,30.07a36,36,0,0,0,.41,6.8A43.48,43.48,0,0,0,19,43.61a40.15,40.15,0,0,0,2.44,5.91.26.26,0,0,0,.29.12.25.25,0,0,0,.17-.31c-.29-1.53-.71-3-1.11-4.55a39.49,39.49,0,0,1-1-4.57v.07c-.07-.54-.12-1.07-.14-1.61a14.93,14.93,0,0,1,0-1.64.25.25,0,0,0-.25-.25.25.25,0,0,0-.25.25c0,.48,0,1,0,1.45s.06,1.08.12,1.62a28.91,28.91,0,0,0,.57,3.06c.25,1.06.54,2.1.81,3.15.09.33.17.66.26,1l-.24-.55,0,.06a42.87,42.87,0,0,1-2.93-10.67v0a32.78,32.78,0,0,1-.09-8.57v0a23.2,23.2,0,0,1,.84-3.76.25.25,0,0,0-.18-.3h-.06a.25.25,0,0,0-.24.18Zm-.27,12.42a.09.09,0,0,0,0,0v0Zm-.1-8.48s0,0,0-.05v.05Z"/><path d="M19.2,21.57a41.52,41.52,0,0,0-1,5.76,60.71,60.71,0,0,0-.32,6.88,52.63,52.63,0,0,0,.52,7,30.46,30.46,0,0,0,1.52,6.3,16.82,16.82,0,0,0,1.49,3.08.25.25,0,0,0,.44-.25,14.59,14.59,0,0,1-1.15-2.22v0a29.69,29.69,0,0,1-1.89-7.47s0,0,0,.06a55.17,55.17,0,0,1-.45-7.49,57.19,57.19,0,0,1,.49-7.28v0a36.87,36.87,0,0,1,.8-4.27.25.25,0,0,0-.17-.3h-.07a.25.25,0,0,0-.24.18ZM18.87,26v0Z"/><path d="M41.26,20.6a.24.24,0,0,0-.18.24c.1.84.21,1.68.32,2.51,0,0,0,0,0,0L42,27.8s0-.05,0-.07c.27,2,.51,3.93.7,5.91s.3,4.11.3,6.17c0,.45,0,.91,0,1.37,0,.26,0,.52,0,.78,0,.48,0,.95,0,1.43s0,1.1,0,1.65a11.58,11.58,0,0,1-.08,1.44.15.15,0,0,1,0-.07,2.68,2.68,0,0,1-.13.56.41.41,0,0,1-.05.09h0a1.06,1.06,0,0,1-.15-.15l0,0,0,0h0l-.05-.07a.26.26,0,0,0-.15-.12.32.32,0,0,0-.19,0,.25.25,0,0,0-.09.34,1.25,1.25,0,0,0,.5.47.39.39,0,0,0,.26,0,.56.56,0,0,0,.24-.13,1.09,1.09,0,0,0,.14-.23,1.73,1.73,0,0,0,.11-.32c0-.13,0-.27.07-.4s0-.39,0-.58c.06-.83,0-1.67,0-2.51,0-.37,0-.74,0-1.11s0-.87,0-1.3A70.39,70.39,0,0,0,43,31.35c-.18-1.55-.39-3.1-.6-4.64-.1-.77-.21-1.53-.31-2.29l-.12-.9h0a.21.21,0,0,0,.15-.11.21.21,0,0,0,0-.19c-.07-.44-.12-.89-.2-1.32a4.61,4.61,0,0,0-.16-.64c0-.18-.14-.36-.21-.54a.25.25,0,0,0-.22-.12Zm1.53,26.46h0Zm0,0Zm-.16-.2,0,0,0,0Z"/><path d="M37.3,19.66a.26.26,0,0,0-.09.35,6.28,6.28,0,0,1,.59,1.12l0-.06a24.22,24.22,0,0,1,1.11,3.54c.4,1.57.73,3.17,1,4.77.34,1.77.64,3.54.91,5.33.14.88.27,1.77.39,2.66l.09.62c0,.11,0,.21,0,.32s0,.06,0,.1a.31.31,0,0,0,0,.1c0,.28.08.57.11.85.08.61.16,1.22.23,1.84.13,1,.25,2.1.34,3.15.08.79.15,1.57.19,2.35,0,.25,0,.51,0,.76s0,.29,0,.44h0v0a.27.27,0,0,0-.06.17.25.25,0,0,0,.25.25.29.29,0,0,0,.25-.15.88.88,0,0,0,.06-.28,4.82,4.82,0,0,0,0-.76c0-1-.13-2-.23-3-.14-1.5-.32-3-.51-4.47-.05-.41-.1-.82-.16-1.23a.06.06,0,0,0,0,0c-.17-1.31-.36-2.62-.56-3.93-.24-1.57-.51-3.13-.8-4.7s-.56-2.89-.9-4.32c-.27-1.17-.58-2.34-1-3.48-.15-.44-.31-.87-.5-1.29a5.46,5.46,0,0,0-.5-.92.28.28,0,0,0-.15-.11h-.07a.27.27,0,0,0-.12,0Zm5,28.25h0Z"/><path d="M39.71,17.82a.25.25,0,0,0-.09.34,24.19,24.19,0,0,1,2.17,4.12l0-.06a55.08,55.08,0,0,1,2.48,7.48,69.82,69.82,0,0,1,1.64,8.24s0,0,0-.07c.21,1.62.37,3.24.43,4.87A26.23,26.23,0,0,1,46.14,47h0a13.54,13.54,0,0,1-.33,1.66A.26.26,0,0,0,46,49a.26.26,0,0,0,.31-.18,14.38,14.38,0,0,0,.39-2.16A25.36,25.36,0,0,0,46.82,44a46.56,46.56,0,0,0-.45-6.13c-.3-2.22-.71-4.41-1.22-6.59a64.26,64.26,0,0,0-1.83-6.37c-.46-1.32-1-2.63-1.55-3.9a21.29,21.29,0,0,0-1.72-3.1.27.27,0,0,0-.22-.12.27.27,0,0,0-.12,0ZM46.14,47v-.06s0,0,0,.06Z"/><path d="M42,16.33a.26.26,0,0,0-.18.17c-.09.27-.17.55-.24.83a7.62,7.62,0,0,0-.14.94,9.36,9.36,0,0,0,0,2,.22.22,0,0,0,.07.17.23.23,0,0,0,.18.08.26.26,0,0,0,.25-.25c0-.36,0-.72,0-1.08a8.74,8.74,0,0,1,.07-1q0-.34.12-.69c0-.15.07-.3.11-.44a5,5,0,0,1,.37.42,10.74,10.74,0,0,1,.88,1.41c.34.64.65,1.31.93,2a.14.14,0,0,0,0-.06c.48,1.15.9,2.33,1.29,3.52.45,1.38.84,2.78,1.21,4.19a76.9,76.9,0,0,1,1.75,8.9v-.06c.2,1.51.36,3,.42,4.57a20.93,20.93,0,0,1-.13,3.71.13.13,0,0,0,0-.06,7.38,7.38,0,0,1-.46,1.85l0-.06a3.72,3.72,0,0,1-.36.65v0l0,0,0,0h0a1.85,1.85,0,0,1-.28.28.26.26,0,0,0,.18.43.3.3,0,0,0,.18-.08,2.52,2.52,0,0,0,.64-.87,5.39,5.39,0,0,0,.44-1.32,13.64,13.64,0,0,0,.24-1.7c0-.68.06-1.37,0-2.05a43.79,43.79,0,0,0-.37-4.85c-.23-1.8-.53-3.58-.89-5.36s-.77-3.55-1.25-5.3-.93-3.21-1.5-4.78a30.31,30.31,0,0,0-1.61-3.74A11.83,11.83,0,0,0,43,17.3a4.73,4.73,0,0,0-.82-.91.29.29,0,0,0-.18-.07Zm0,1.8v0ZM48.05,48h0l0,0Z"/><path d="M41.88,18.17a2.42,2.42,0,0,0-.24.45,2.07,2.07,0,0,0-.13.61,11.05,11.05,0,0,0,0,1.52.25.25,0,0,0,.25.25.25.25,0,0,0,.25-.25,11.05,11.05,0,0,1,0-1.52v.06A2.51,2.51,0,0,1,42,19c0-.09.05-.18.09-.27v0A17.48,17.48,0,0,1,44,22.15l0-.06a36.5,36.5,0,0,1,1.71,5.31,58.6,58.6,0,0,1,1.13,6.05v-.07a64.62,64.62,0,0,1,.56,7.22A43.91,43.91,0,0,1,47,47v0l-.12.79c0-.19,0-.37,0-.56,0-.51,0-1,0-1.52a.25.25,0,0,0-.25-.25.25.25,0,0,0-.25.25c0,.63,0,1.26,0,1.9a6.8,6.8,0,0,0,.23,1.68.26.26,0,0,0,.24.19.25.25,0,0,0,.24-.19,28.16,28.16,0,0,0,.68-5.18,54.16,54.16,0,0,0-.08-6.37A62.52,62.52,0,0,0,46.92,31a50.87,50.87,0,0,0-1.49-6.32A28.65,28.65,0,0,0,44,21a15.28,15.28,0,0,0-1.73-2.88.24.24,0,0,0-.18-.07.25.25,0,0,0-.22.12ZM47,47v-.05A.07.07,0,0,0,47,47Z"/><path d="M42.55,19.22a.34.34,0,0,0-.21.18,1.15,1.15,0,0,0-.08.41.25.25,0,0,0,.25.25.21.21,0,0,0,.17-.07l0,.07s0,0,0,0a8.82,8.82,0,0,1,.31.86q.21.63.39,1.26c.26.88.49,1.77.72,2.65.15.59.3,1.18.44,1.77.31,1.4.55,2.82.75,4.25v0a42.2,42.2,0,0,1,.13,11h0A23,23,0,0,1,43.9,47.6l0-.06-.24.53a.25.25,0,0,0,0,.19.22.22,0,0,0,.11.15.26.26,0,0,0,.35-.09c.23-.51.44-1,.63-1.55s.4-1.24.57-1.87A28.05,28.05,0,0,0,46,41.15a35.84,35.84,0,0,0,.22-4c0-1.34-.06-2.68-.17-4s-.27-2.53-.47-3.78c-.16-1-.35-2-.58-3-.13-.54-.27-1.09-.41-1.63-.19-.76-.4-1.53-.61-2.28-.16-.55-.32-1.09-.49-1.63a10.79,10.79,0,0,0-.43-1.12,1.41,1.41,0,0,0-.18-.29.37.37,0,0,0-.27-.13Zm.18.46Zm-.21,0Zm2.9,22.09v-.05a.43.43,0,0,0,0,.05ZM45.3,30.83v0ZM42.69,20v0Z"/><path d="M39.63,17.7a.25.25,0,0,0-.18.31A82.25,82.25,0,0,1,42,26a67.69,67.69,0,0,1,1.69,8.34.2.2,0,0,1,0-.07,59.84,59.84,0,0,1,.51,6.82A51.57,51.57,0,0,1,43.88,48a.3.3,0,0,0,.08.18.23.23,0,0,0,.17.07.23.23,0,0,0,.18-.07.21.21,0,0,0,.07-.18c.15-1.25.24-2.5.3-3.75s.06-2.61,0-3.91A58.86,58.86,0,0,0,44,32.72a74.1,74.1,0,0,0-4-14.84.22.22,0,0,0-.11-.15.22.22,0,0,0-.13,0Z"/><path d="M16.12,27c-.36,1.83-.66,3.67-.86,5.52a41.45,41.45,0,0,0-.25,6.3,29.38,29.38,0,0,0,.3,3A16.36,16.36,0,0,0,16,44.66a12.13,12.13,0,0,0,1.11,2.4,8.91,8.91,0,0,0,1.7,2,.26.26,0,0,0,.35,0v0l.39,1.4a.24.24,0,0,0,.3.18.26.26,0,0,0,.18-.31q-.89-3.12-1.54-6.29c-.44-2.09-.79-4.2-1.07-6.32h0A106.58,106.58,0,0,1,16.6,27a.27.27,0,0,0-.18-.25h-.06a.24.24,0,0,0-.24.18Zm.07,2.39c.06,1.19.14,2.38.24,3.58.16,2,.39,3.92.67,5.87a89.26,89.26,0,0,0,2,9.84,10.05,10.05,0,0,1-.95-1h0l0,0h0a9.77,9.77,0,0,1-.68-1,12.1,12.1,0,0,1-.62-1.25v0a17.69,17.69,0,0,1-1.12-4.3l0,.07a30.82,30.82,0,0,1-.23-5.08,48.71,48.71,0,0,1,.43-5,.06.06,0,0,1,0,0l.27-1.79Zm1.94,18.28v0Zm-1.29-2.21v0Z"/><path d="M28.53,9.74a18.77,18.77,0,0,0-3.39.88,27.38,27.38,0,0,0-3.37,1.49,54.44,54.44,0,0,0-6.45,4,.26.26,0,0,0-.11.16.25.25,0,0,0,0,.19.25.25,0,0,0,.34.09,46.53,46.53,0,0,1,8.49-5h0q1.15-.48,2.34-.84A17.75,17.75,0,0,1,29,10.17h0a16.16,16.16,0,0,1,2-.15,14.83,14.83,0,0,1,2,.14l-.06,0a16.16,16.16,0,0,1,1.68.35,14,14,0,0,1,1.85.64l0,0a17.23,17.23,0,0,1,2.09,1.08,14,14,0,0,1,1.35.93,20,20,0,0,1,3.38,3.43l0,0,0,0,0,0v0a24.25,24.25,0,0,1,3,5.2l0-.06a23.3,23.3,0,0,1,1.58,5.71h0a19.94,19.94,0,0,1,.17,2.31,16.7,16.7,0,0,1-.15,2.45.17.17,0,0,1,0-.07,16.74,16.74,0,0,1-.35,1.74,14,14,0,0,1-.61,1.79l0-.06c-.16.38-.34.76-.54,1.13a.25.25,0,0,0,.08.34A.26.26,0,0,0,46.7,37a13.83,13.83,0,0,0,1.15-2.85,15.23,15.23,0,0,0,.5-3.08,19.51,19.51,0,0,0-.71-6.49A23.93,23.93,0,0,0,45,18.38a21.07,21.07,0,0,0-4.1-5,16.67,16.67,0,0,0-2-1.52,15.57,15.57,0,0,0-3.37-1.61,14,14,0,0,0-3.43-.71c-.34,0-.69,0-1,0a16.24,16.24,0,0,0-2.51.21Zm11.24,3.39,0,0,0,0Zm3.39,3.44h0ZM24,11.6l.05,0-.05,0Zm12.39-.45h0Zm-7.42-1h0Z"/><path d="M25.56,7.94A9.34,9.34,0,0,0,21.77,9.6a14.57,14.57,0,0,0-3.13,3.19,23.93,23.93,0,0,0-2.49,4.3A38,38,0,0,0,14.32,22a45.26,45.26,0,0,0-1.2,5.15,43.57,43.57,0,0,0-.59,5c0,.81-.06,1.62,0,2.43a.3.3,0,0,0,.3.3.29.29,0,0,0,.3-.3c0-.84.05-1.68.11-2.52s.17-1.92.29-2.87v.09a48.77,48.77,0,0,1,1.1-5.61,40.32,40.32,0,0,1,1.82-5.47h0a25.11,25.11,0,0,1,3.09-5.46A14.49,14.49,0,0,1,22,10.21l0,0A10.32,10.32,0,0,1,24.11,9L24,9a8.41,8.41,0,0,1,2.09-.57h0a8.93,8.93,0,0,1,2.31,0h-.08a12,12,0,0,1,2.88.8l-.06,0a18.26,18.26,0,0,1,3.68,2.13.24.24,0,0,0,.34-.09.21.21,0,0,0,0-.19.23.23,0,0,0-.11-.15A17.07,17.07,0,0,0,30,8.23a10.59,10.59,0,0,0-2.29-.41,5.24,5.24,0,0,0-.56,0,9.28,9.28,0,0,0-1.58.14ZM22,10.21l0,0,0,0Z"/><path d="M22.79,9.83a7.24,7.24,0,0,0-2,.45,8.19,8.19,0,0,0-1.8,1A12,12,0,0,0,16,14.42a21.57,21.57,0,0,0-2.16,4.39,34.34,34.34,0,0,0-1.41,5,41.52,41.52,0,0,0-.7,5,29.65,29.65,0,0,0-.07,4.32,26.64,26.64,0,0,0,.46,3.43,31.12,31.12,0,0,0,1.28,4.4A38.74,38.74,0,0,0,15.22,45a.25.25,0,0,0,.34.09.26.26,0,0,0,.09-.34c-.38-.76-.74-1.54-1.07-2.32l0,.06a39.08,39.08,0,0,1-1.37-3.8,28.22,28.22,0,0,1-.87-4.06v0q-.13-1.05-.18-2.1c0-.62,0-1.23,0-1.85a37.18,37.18,0,0,1,.33-4.08v0a35.2,35.2,0,0,1,2.32-8.82l0,.05a19.38,19.38,0,0,1,2.3-4.06,10.74,10.74,0,0,1,1.92-2,7.72,7.72,0,0,1,1.73-1l-.06,0a7.71,7.71,0,0,1,1.84-.5h-.07a8.11,8.11,0,0,1,2,0l-.07,0a11,11,0,0,1,2.65.75l-.06,0,.21.09a.25.25,0,0,0,.19,0,.21.21,0,0,0,.15-.11.24.24,0,0,0-.09-.34A11.59,11.59,0,0,0,25,10,8.81,8.81,0,0,0,23.4,9.8c-.2,0-.41,0-.61,0ZM12.36,34.62s0,0,0,0v0Zm.14-7.94v0Z"/><path d="M14.14,33.3a.24.24,0,0,0-.17.31c.67,2.43,1.19,4.91,1.76,7.37.29,1.23.6,2.45.94,3.67s.76,2.45,1.23,3.64a.35.35,0,0,0,.12.15.32.32,0,0,0,.19,0,.26.26,0,0,0,.15-.12.25.25,0,0,0,0-.19c-.47-1.19-.87-2.41-1.23-3.64s-.66-2.44-.95-3.68c-.58-2.46-1.09-4.93-1.76-7.37a.26.26,0,0,0-.25-.18Z"/><path d="M13.24,31.26a.33.33,0,0,0-.15.11,11.15,11.15,0,0,0-.66,2,17.35,17.35,0,0,0-.36,2.35,24.16,24.16,0,0,0,.2,5.44,22.18,22.18,0,0,0,.55,2.67,17.1,17.1,0,0,0,.82,2.41A10.24,10.24,0,0,0,16.19,50a.25.25,0,0,0,.35,0,.08.08,0,0,0,0,0,12.36,12.36,0,0,0,1.06,1.33.25.25,0,0,0,.35,0A.25.25,0,0,0,18,51c-.23-.25-.46-.52-.67-.79a16.13,16.13,0,0,1-2-3.51s0,0,0,.07a27.47,27.47,0,0,1-1.78-6.84h0a35.69,35.69,0,0,1-.3-4.13,29.34,29.34,0,0,1,.21-3.87h0c0-.12,0-.23.05-.34a.28.28,0,0,0,0-.13.26.26,0,0,0-.11-.16.31.31,0,0,0-.13,0Zm-.41,2.64c0,.81-.05,1.61,0,2.42a34.52,34.52,0,0,0,.61,5.56A26.57,26.57,0,0,0,15,47.05a15,15,0,0,0,1.11,2.19c-.19-.2-.37-.41-.54-.62A12.12,12.12,0,0,1,14.07,46l0,0a21.21,21.21,0,0,1-1.38-5.27.64.64,0,0,0,0,.07,22.62,22.62,0,0,1-.05-6v0c.05-.31.1-.61.16-.92Zm1.26,12.15v0ZM12.67,34.84v0Z"/><path d="M14.85,29.64a.29.29,0,0,0-.07.18c-.09.94-.13,1.88-.14,2.82s0,1.87.11,2.79a44,44,0,0,0,.81,5.37A93.26,93.26,0,0,0,18.7,51.52a.25.25,0,1,0,.48-.13c-.78-2.3-1.54-4.61-2.2-7a53.85,53.85,0,0,1-1.51-7v0c-.16-1.23-.27-2.46-.31-3.7a30.51,30.51,0,0,1,.12-3.94.25.25,0,0,0-.25-.25.24.24,0,0,0-.18.07Zm.62,7.8v0Z"/><path d="M44.81,21.13a.25.25,0,0,0,.09.34c.22.14.44.3.66.46a9.6,9.6,0,0,1,.9.79,9.93,9.93,0,0,1,.86,1h0l0,0h0a12.86,12.86,0,0,1,.76,1.16,10.77,10.77,0,0,1,.65,1.32l0-.06a18.39,18.39,0,0,1,1.21,4.69h0A48.74,48.74,0,0,1,50,39.94c-.09,1.47-.21,3-.3,4.43-.09,1.31-.16,2.61-.16,3.93a.25.25,0,0,0,.25.25.26.26,0,0,0,.25-.25c0-1.87.14-3.75.27-5.61.16-2.12.31-4.23.35-6.35a36.24,36.24,0,0,0-.36-6.25,16.15,16.15,0,0,0-1.78-5.46,10.86,10.86,0,0,0-1.42-1.94,9.44,9.44,0,0,0-2-1.65A.19.19,0,0,0,45,21a.26.26,0,0,0-.22.13Zm2.53,2.59,0,0h0l0,0Z"/><path d="M39.16,13.84a.25.25,0,0,0,0,.36,27.83,27.83,0,0,1,2,2.31h0l0,0,0,0h0a32.4,32.4,0,0,1,2.36,3.57,37.79,37.79,0,0,1,2,4s0,0,0-.06A50.05,50.05,0,0,1,48.85,36.6v0a55.76,55.76,0,0,1,.44,10.17.25.25,0,0,0,.25.25.26.26,0,0,0,.25-.25,56.17,56.17,0,0,0-1.21-14.58,48.27,48.27,0,0,0-2.18-7.27,38,38,0,0,0-3.29-6.52,28.48,28.48,0,0,0-3.59-4.53.26.26,0,0,0-.17-.07.29.29,0,0,0-.18.07Zm9.69,22.78v0ZM41.21,16.55l0,0v0l0,0Z"/><path d="M45.59,20.3a.25.25,0,0,0-.09.35,48.12,48.12,0,0,1,3.77,7.18h0a33.76,33.76,0,0,1,2.4,8.36v0c.1.81.17,1.62.19,2.44a16.31,16.31,0,0,1-.14,2.52h0a14.29,14.29,0,0,1-.3,1.56,13.49,13.49,0,0,1-.56,1.66l0-.06a11.82,11.82,0,0,1-.67,1.33.27.27,0,0,0,.09.34.26.26,0,0,0,.35-.09A12.24,12.24,0,0,0,51.82,43a14.85,14.85,0,0,0,.51-3.19,19.77,19.77,0,0,0-.14-3.44A28.57,28.57,0,0,0,51.54,33,40.39,40.39,0,0,0,49.1,26.2a48.72,48.72,0,0,0-3.17-5.81.29.29,0,0,0-.22-.12.27.27,0,0,0-.12,0Zm6.12,20.78v0a.43.43,0,0,0,0,0ZM49.26,27.82l0-.05a.08.08,0,0,1,0,.05Z"/><path d="M46.65,25.8a.25.25,0,0,0-.09.34,22.57,22.57,0,0,1,1.83,3.56l0-.06a38.89,38.89,0,0,1,1.48,4.21,33.74,33.74,0,0,1,1,4.67v0a18.47,18.47,0,0,1,.08,4.87s0,0,0-.07a9,9,0,0,1-.59,2.23l0-.06a5.86,5.86,0,0,1-.71,1.24.28.28,0,0,0,0,.2.29.29,0,0,0,.12.15.25.25,0,0,0,.19,0,.28.28,0,0,0,.15-.11,8.38,8.38,0,0,0,1.42-4.51,18,18,0,0,0-.06-2.94A26.26,26.26,0,0,0,51,36.45a37.36,37.36,0,0,0-1.78-6c-.33-.85-.69-1.69-1.09-2.51a20.66,20.66,0,0,0-1.12-2,.27.27,0,0,0-.22-.13.22.22,0,0,0-.13,0Zm4.19,12.74v0Z"/><path d="M21.44,45.87a.25.25,0,0,0,.25.25.25.25,0,0,0,.25-.25.25.25,0,0,0-.25-.25.26.26,0,0,0-.25.25Z"/><path d="M41.55,45.73c0,.46-.06.93-.12,1.4v0a14.62,14.62,0,0,1-.34,1.75,12.07,12.07,0,0,1-.53,1.57v0a10.54,10.54,0,0,1-1.19,2.09h0l0,0,0,0h0a8.87,8.87,0,0,1-1.5,1.5,8.51,8.51,0,0,1-1.8,1l.06,0a9.28,9.28,0,0,1-2.14.58h0a10,10,0,0,1-2.38,0h0a10.54,10.54,0,0,1-2.6-.71l.06,0a12,12,0,0,1-2.62-1.52,13.46,13.46,0,0,1-2.32-2.33,12.9,12.9,0,0,1-.94-1.38,14.06,14.06,0,0,1-.9-1.72.27.27,0,0,0-.15-.11.27.27,0,0,0-.2,0,.33.33,0,0,0-.11.15.25.25,0,0,0,0,.19,16.18,16.18,0,0,0,1.46,2.6A13.86,13.86,0,0,0,25,52.89a12.62,12.62,0,0,0,2,1.57,12.31,12.31,0,0,0,2.15,1.07,10.12,10.12,0,0,0,4.46.64,8.76,8.76,0,0,0,4.06-1.42,9.12,9.12,0,0,0,3-3.47,13.69,13.69,0,0,0,1.34-5.55.25.25,0,0,0-.25-.25.25.25,0,0,0-.25.25ZM37.87,54h0Zm-3.95,1.63Zm5.42-3.11v0l0,0,0,0Zm2.09-5.43h0Z"/><path d="M25.89,36.42a4.14,4.14,0,0,0-.7.06,3.29,3.29,0,0,0-.78.24,4.19,4.19,0,0,0-.75.41,3.49,3.49,0,0,0-.61.56c-.1.12-.18.25-.27.38a1.88,1.88,0,0,0-.19.41.35.35,0,0,0,.15.38.33.33,0,0,0,.17,0,.39.39,0,0,0,.29-.16l.12-.17.12-.17a3.4,3.4,0,0,1,.64-.67h0l.24.36a.7.7,0,0,0,.13.17,1.09,1.09,0,0,0,.28.26,1.51,1.51,0,0,0,.5.24,1.11,1.11,0,0,0,.25.05h.35a1.57,1.57,0,0,0,.47-.13l.24-.13a1,1,0,0,0,.26-.22.88.88,0,0,0,.17-.2,1.62,1.62,0,0,0,.17-.32,1,1,0,0,0,.1-.3.78.78,0,0,0,0-.21l.37.23.26.23a.24.24,0,0,0,.36,0,.24.24,0,0,0,0-.36,3.59,3.59,0,0,0-.64-.51,3.33,3.33,0,0,0-.73-.32,3.64,3.64,0,0,0-.79-.14Z"/><path d="M37.55,34.85H37.4a3.59,3.59,0,0,0-1.32.28,2.39,2.39,0,0,0-.5.26,2.49,2.49,0,0,0-.52.47.35.35,0,0,0-.09.23.32.32,0,0,0,.09.23.36.36,0,0,0,.25.1.29.29,0,0,0,.22-.1l.2-.21a.52.52,0,0,0,.09.2,1.37,1.37,0,0,0,.15.21,1.42,1.42,0,0,0,.25.23,1.5,1.5,0,0,0,.51.24.45.45,0,0,0,.16,0l.18,0,.22,0a1.57,1.57,0,0,0,1-.53,1.46,1.46,0,0,0,.3-.51,2.6,2.6,0,0,0,.1-.4,2.87,2.87,0,0,1,.66.19l.25.13a.31.31,0,0,0,.13,0,.26.26,0,0,0,.23-.12.26.26,0,0,0-.1-.36A4.71,4.71,0,0,0,38.77,35l-.17,0a.41.41,0,0,0-.18,0,4.72,4.72,0,0,0-.87-.07Z"/><path d="M32.92,40.06a.3.3,0,0,0-.15.12l-.09.12a.8.8,0,0,1-.15.17l-.19.18-.17.11-.2.1h0l-.35.1-.21,0a2.56,2.56,0,0,1-.39,0h.05l-.28-.07a1.23,1.23,0,0,1-.29-.09.25.25,0,0,0-.31.17.25.25,0,0,0,.17.31l.43.13c.11,0,.23,0,.35.06a2.38,2.38,0,0,0,.84-.08,2.52,2.52,0,0,0,.29-.12,2.8,2.8,0,0,0,.34-.21,2.76,2.76,0,0,0,.56-.62.25.25,0,0,0-.09-.34.28.28,0,0,0-.13,0Z"/><path d="M23.39,30.83a6.79,6.79,0,0,0-1.64.57,6.25,6.25,0,0,0-1.44,1,.25.25,0,0,0,.35.35l.34-.28c.19-.14.39-.28.6-.41a7.46,7.46,0,0,1,.8-.4c.23-.09.45-.16.68-.23a6.69,6.69,0,0,1,.75-.16h-.07c.25,0,.51-.05.76-.06a5.26,5.26,0,0,1,.89.05h0q.3,0,.6.12a4.06,4.06,0,0,1,.59.19.25.25,0,0,0,.31-.18.32.32,0,0,0,0-.19.35.35,0,0,0-.15-.12,5.77,5.77,0,0,0-.74-.22,5.6,5.6,0,0,0-.82-.13,3.93,3.93,0,0,0-.49,0,6.54,6.54,0,0,0-1.25.12Z"/><path d="M36.34,28.89a8.19,8.19,0,0,0-2,.67,4.9,4.9,0,0,0-1.61,1.17.25.25,0,0,0,0,.35.25.25,0,0,0,.36,0,3.78,3.78,0,0,1,.5-.48h0l0,0h0A6.57,6.57,0,0,1,35,29.83l-.06,0A8.33,8.33,0,0,1,37,29.29h-.06a6.11,6.11,0,0,1,1.48,0h0a2.93,2.93,0,0,1,.77.21l-.06,0a2.08,2.08,0,0,1,.36.2l0,0a.24.24,0,0,0,.36,0,.24.24,0,0,0,.07-.17.29.29,0,0,0-.07-.18l-.27-.19a1.4,1.4,0,0,0-.3-.15,3.51,3.51,0,0,0-.83-.22,5.34,5.34,0,0,0-.69-.05,7.3,7.3,0,0,0-1.39.15Zm3,.76,0,0,0,0Zm-5.77.93,0,0,0,0Z"/><path d="M25.64,33.86a5.55,5.55,0,0,0-2.43.8,6.87,6.87,0,0,0-.94.69,6.15,6.15,0,0,0-.83.86,5.53,5.53,0,0,0-1,2,4.29,4.29,0,0,0-.13,1.07,3.88,3.88,0,0,0,.19,1.07,3.57,3.57,0,0,0,.52,1,2.8,2.8,0,0,0,.39.45,1.31,1.31,0,0,0,.24.17l.34.19a.26.26,0,0,0,.34-.09.22.22,0,0,0,0-.13c.15.09.31.17.47.25a5.56,5.56,0,0,0,.61.25,5.43,5.43,0,0,0,1.38.26,5.71,5.71,0,0,0,1.24-.09,5.58,5.58,0,0,0,3.18-1.91,4.53,4.53,0,0,0,1-2.06,3.83,3.83,0,0,0,.05-1.07,4.35,4.35,0,0,0-.1-.52,3.07,3.07,0,0,0-.22-.6,4,4,0,0,0-.67-1,5.45,5.45,0,0,0-1.18-1A4.23,4.23,0,0,0,26.94,34a3.75,3.75,0,0,0-1-.12Zm.83.53-.07,0a4,4,0,0,1,.9.25h0a5.48,5.48,0,0,1,1.06.65,4.74,4.74,0,0,1,.78.77v0l0,0,0,0h0a3.85,3.85,0,0,1,.41.71,3.72,3.72,0,0,1,.22.79,4,4,0,0,1,0,.85v-.06a4.48,4.48,0,0,1-.24.94,5.34,5.34,0,0,1-.59,1,5.7,5.7,0,0,1-.89.88,5.76,5.76,0,0,1-1.15.67h0a5.42,5.42,0,0,1-1.31.36l.07,0a4.49,4.49,0,0,1-.64,0,4.4,4.4,0,0,1-.62,0h0a5,5,0,0,1-1.21-.33,6.59,6.59,0,0,1-.83-.44.26.26,0,0,0-.34.09.18.18,0,0,0,0,.14l-.06,0a2.26,2.26,0,0,1-.26-.16l-.08-.07-.18-.22,0,0a4.2,4.2,0,0,1-.43-.74l0,.05a3.78,3.78,0,0,1-.24-.83,3.94,3.94,0,0,1,0-1v0a5,5,0,0,1,.31-1.09l0,.06a5.68,5.68,0,0,1,.67-1.14,6.52,6.52,0,0,1,1.05-1.05l0,0,0,0h0a7.41,7.41,0,0,1,1.36-.79,5.32,5.32,0,0,1,1.17-.31h0a3.83,3.83,0,0,1,1.07,0ZM20.83,39.6a.13.13,0,0,1,0,.06V39.6Zm8.11.7,0,0,0,0Zm-7.42.91,0,0,0,0Zm7.62-5.16h0l0,0Zm-6.28-.55h0l0,0Z"/><path d="M33.22,37c-.77.18-1.55.33-2.33.44h0l-.3,0a.24.24,0,0,0-.18.07.27.27,0,0,0-.07.18.26.26,0,0,0,.07.17.27.27,0,0,0,.18.08c.45-.06.89-.12,1.33-.2s1-.19,1.43-.3a.25.25,0,0,0-.06-.49Z"/><path d="M36.9,32.33a4.91,4.91,0,0,0-1.13.34,4.76,4.76,0,0,0-1.05.66.24.24,0,0,0-.07.18.26.26,0,0,0,.07.18.29.29,0,0,0,.18.07.31.31,0,0,0,.18-.07l.07-.06a4.56,4.56,0,0,1,1-.56l0,0a4.54,4.54,0,0,1,1.08-.29h0a5.46,5.46,0,0,1,1.34,0h0a6.22,6.22,0,0,1,1.53.43l0,0a6.82,6.82,0,0,1,1.33.78,5.17,5.17,0,0,1,.91.9,3.9,3.9,0,0,1,.5.83,3.8,3.8,0,0,1,.22.8v-.06a3.32,3.32,0,0,1,0,.63v0a2.6,2.6,0,0,1-.2.71l0-.06a3.14,3.14,0,0,1-.37.64h0v0h0a4.66,4.66,0,0,1-.81.79,5.2,5.2,0,0,1-1,.56,6.16,6.16,0,0,1-1.21.32h0a7.13,7.13,0,0,1-1.6,0h0a6.22,6.22,0,0,1-1.59-.42l.07,0A5.49,5.49,0,0,1,35.1,39a4.37,4.37,0,0,1-.69-.67,3.23,3.23,0,0,1-.42-.72l0,0a2.83,2.83,0,0,1-.17-.65,2.73,2.73,0,0,1,0-.7h0v-.06s0,0,0,0a3.71,3.71,0,0,1,.26-.86l0,.05a5.69,5.69,0,0,1,.61-1l0-.06a.23.23,0,0,0,.08-.18.21.21,0,0,0-.08-.17.23.23,0,0,0-.17-.08.25.25,0,0,0-.18.08,5.89,5.89,0,0,0-.41.57,4.12,4.12,0,0,0-.33.62,3.73,3.73,0,0,0-.2.56,3.57,3.57,0,0,0-.11.64,3,3,0,0,0,.09,1,3.47,3.47,0,0,0,.48,1,4.68,4.68,0,0,0,1.74,1.44,6.61,6.61,0,0,0,2.38.66,5.88,5.88,0,0,0,2.53-.32A4.72,4.72,0,0,0,43,38.33a3.54,3.54,0,0,0,.23-.48,2.75,2.75,0,0,0,.2-1.07,3.18,3.18,0,0,0-.16-1,3.75,3.75,0,0,0-.5-1,5.6,5.6,0,0,0-1.52-1.47,6.58,6.58,0,0,0-2.08-.92,6.39,6.39,0,0,0-1.08-.16h-.29a5.35,5.35,0,0,0-.89.08Zm5.79,3.38,0,0s0,0,0,0ZM33.84,37v0Zm.58,1.33,0,0,0,0Zm4.89,1.71h0Zm3-1.67h0Zm.56-1.3h0Zm-9.06-.78Zm4.62-3.51h0Z"/><path d="M32.37,45.15a5.48,5.48,0,0,0-1,.14,6.48,6.48,0,0,0-1.16.35,7,7,0,0,0-1.89,1.15.26.26,0,0,0,0,.36.28.28,0,0,0,.17.07.29.29,0,0,0,.18-.07l.26-.22h0l0,0h0c.21-.15.41-.28.62-.41a6.91,6.91,0,0,1,.72-.36l-.06,0a8.53,8.53,0,0,1,.89-.32,7.12,7.12,0,0,1,.92-.18H32a7.16,7.16,0,0,1,.8,0,5.11,5.11,0,0,1,.78,0h0l.52.11a4.17,4.17,0,0,1,.57.18,4.71,4.71,0,0,1,.45.22,4.52,4.52,0,0,1,.51.34,4.4,4.4,0,0,1,.39.35.25.25,0,0,0,.36,0,.26.26,0,0,0,0-.35,4.68,4.68,0,0,0-.78-.63,4.42,4.42,0,0,0-1-.49,6,6,0,0,0-.95-.22,7.86,7.86,0,0,0-.83,0Zm3.18,1.38,0,0,0,0Zm-6.61.39h0Z"/><path d="M34.34,46.07l-.1.15a2.85,2.85,0,0,1-.23.26,1.37,1.37,0,0,1-.22.19,3,3,0,0,1-.58.34l0,0-.34.12a3.4,3.4,0,0,1-.46.09,3,3,0,0,1-.42,0,2.42,2.42,0,0,1-.46,0h.05l-.35-.07c-.15,0-.29-.1-.43-.15l-.27-.15a2.2,2.2,0,0,1-.25-.17h0a3.07,3.07,0,0,1-.26-.25.25.25,0,0,0-.36.36,5,5,0,0,0,.5.42,3.77,3.77,0,0,0,.7.34,3.5,3.5,0,0,0,.64.15l.36,0a3.85,3.85,0,0,0,.48,0,3.52,3.52,0,0,0,1.37-.42,2.73,2.73,0,0,0,.52-.37,2.58,2.58,0,0,0,.49-.6.26.26,0,0,0-.09-.34l-.12,0a.25.25,0,0,0-.22.12ZM32.48,47.2h0Z"/><path d="M32,45.62a.27.27,0,0,0-.15.11.34.34,0,0,0,0,.2l.06.36a.64.64,0,0,1,0-.07,1.37,1.37,0,0,1,0,.19.3.3,0,0,0,.08.18.26.26,0,0,0,.17.07.27.27,0,0,0,.18-.07.26.26,0,0,0,.07-.18c0-.21,0-.41-.08-.62a.25.25,0,0,0-.24-.18Z"/></svg>