<svg xmlns:dc="http://purl.org/dc/elements/1.1/" xmlns:cc="http://creativecommons.org/ns#" xmlns:rdf="http://www.w3.org/1999/02/22-rdf-syntax-ns#" xmlns:svg="http://www.w3.org/2000/svg" xmlns="http://www.w3.org/2000/svg" xmlns:sodipodi="http://sodipodi.sourceforge.net/DTD/sodipodi-0.dtd" xmlns:inkscape="http://www.inkscape.org/namespaces/inkscape" version="1.1" x="0px" y="0px" viewBox="0 0 100 125" xml:space="preserve"><path d="m 64.583342,1.9e-4 c -5.822244,0 -10.820717,3.45405 -13.156841,8.39993 -7.730439,0.35156 -13.926644,6.701 -13.926644,14.5164 0,4.37166 1.974342,8.25483 5.031948,10.93021 -6.987669,0.95527 -13.556818,3.23506 -19.082187,6.67645 -2.541006,-1.95917 -5.633286,-3.02313 -8.866086,-3.02313 -1.151558,0 -2.08358,0.93202 -2.08358,2.08358 0,2.87479 0.880667,5.68821 2.506247,8.09094 -2.793349,3.26132 -4.766446,6.89318 -5.7918329,10.65899 l -0.8808101,0 C 3.7374797,58.33356 0,62.07047 0,66.66635 c 0,4.6367 2.3499391,8.86861 6.2846897,11.32427 l 14.5488193,9.06368 0,10.86193 c 0,1.15156 0.931639,2.08358 2.083197,2.08358 l 8.333175,0 c 0.78945,0 1.509754,-0.4456 1.863854,-1.15165 l 2.465811,-4.93162 c 9.220278,2.54315 19.620435,2.54315 28.840908,0 l 2.465811,4.93162 c 0.3541,0.70605 1.074404,1.15165 1.863854,1.15165 l 8.333175,0 c 1.151558,0 2.08358,-0.93202 2.08358,-2.08358 l 0,-11.03092 c 7.958954,-5.85525 12.499953,-13.93012 12.499953,-22.30216 0,-3.03553 -0.608473,-5.96211 -1.689523,-8.73905 1.411518,-1.57402 2.862327,-3.62482 3.96994,-6.28965 1.277729,0.28886 2.612533,0.44517 3.969559,0.44517 1.151558,0 2.083197,-0.93164 2.083197,-2.0832 -3.91e-4,-1.15117 -0.932403,-2.08282 -2.083961,-2.08282 -0.94609,0 -1.855174,-0.0957 -2.713765,-0.26855 0.396678,-1.79452 0.630568,-3.78612 0.630568,-5.98142 0,-3.44647 -2.803505,-6.24998 -6.249976,-6.24998 -3.446471,0 -6.249976,2.80351 -6.249976,6.24998 0,3.42401 2.740468,6.65467 6.671117,8.58532 -0.601756,1.39804 -1.3178,2.5702 -2.057641,3.57703 C 82.865526,43.33254 72.970345,36.91532 60.899883,34.45517 62.708861,33.06045 64.182681,31.2408 65.188732,29.10546 72.943,28.77968 79.166111,22.41613 79.166111,14.58334 79.166306,6.54314 72.623546,1.9e-4 64.583342,1.9e-4 Z m 0,4.1664 c 5.743337,0 10.416372,4.6736 10.416372,10.41713 0,5.74354 -4.673035,10.41638 -10.416372,10.41638 -5.743338,0 -10.416755,-4.67304 -10.416755,-10.41638 0,-5.74333 4.673222,-10.41713 10.416755,-10.41713 z m 0,4.16678 c -1.151558,0 -2.08358,0.93164 -2.08358,2.08319 l 0,8.33356 c 0,1.15156 0.932022,2.08358 2.08358,2.08358 1.151558,0 2.083197,-0.93202 2.083197,-2.08358 l 0,-8.33356 c 0,-1.15155 -0.931639,-2.08319 -2.083197,-2.08319 z m -14.394705,4.38497 c -0.08008,0.61719 -0.188827,1.22653 -0.188827,1.865 0,1.06094 0.127874,2.09016 0.344084,3.08722 -0.199022,0.31953 -0.344084,0.67526 -0.344084,1.07956 l 0,8.33356 c 0,1.15155 0.932021,2.08319 2.08358,2.08319 1.151558,0 2.083197,-0.93164 2.083197,-2.08319 l 0,-2.3262 c 1.778704,1.8207 4.042068,3.1306 6.563543,3.82689 -1.890618,2.90214 -5.107496,4.74928 -8.64674,4.74928 -5.743533,0 -10.417137,-4.6736 -10.417137,-10.41713 0,-5.06053 3.632364,-9.27787 8.522384,-10.19818 z M 49.99981,37.50005 c 20.676679,0 37.499857,12.15014 37.499857,27.08348 0,7.40154 -4.119955,14.33272 -11.602739,19.51668 -0.561522,0.39063 -0.897214,1.02958 -0.897214,1.71318 l 0,10.02002 -4.962139,0 -2.671041,-5.34093 c -0.45781,-0.91758 -1.515666,-1.3649 -2.488318,-1.05553 -9.419691,2.9582 -20.337122,2.9582 -29.756813,0 -0.98066,-0.30117 -2.030508,0.1442 -2.488318,1.05553 l -2.671041,5.34093 -4.962139,0 0,-9.93458 c 0,-0.72031 -0.370405,-1.38763 -0.980754,-1.7681 L 8.4899579,74.45441 c -2.7079975,-1.68867 -4.32318,-4.59999 -4.32318,-7.78806 0,-2.29687 1.8699118,-4.1664 4.1667781,-4.1664 l 2.532949,0 c 0.996871,0 1.85346,-0.70605 2.04467,-1.68456 0.799607,-4.1035 2.982463,-8.11144 6.312919,-11.59053 0.746676,-0.7793 0.772945,-2.002 0.06104,-2.81371 -1.165816,-1.32851 -1.95722,-2.84828 -2.343742,-4.47386 1.818939,0.42519 3.5014,1.34076 4.880887,2.67943 0.71406,0.69179 1.80487,0.78749 2.620688,0.22812 6.982004,-4.73651 16.05786,-7.34479 25.556848,-7.34479 z m 39.583437,0 c 1.149605,0 2.083197,0.93397 2.083197,2.08358 -1.95e-4,1.64589 -0.154541,3.15102 -0.421141,4.5223 -2.315226,-1.3164 -3.745636,-3.13285 -3.745636,-4.5223 0,-1.14941 0.933975,-2.08358 2.08358,-2.08358 z M 49.99981,41.70841 c -5.436161,0 -10.872084,0.71511 -15.232028,2.14537 -1.094527,0.35801 -1.688949,1.53594 -1.330943,2.62832 0.362108,1.09453 1.544327,1.69715 2.628697,1.33094 7.893916,-2.59198 19.974631,-2.59198 27.868547,0 0.215624,0.0713 0.433635,0.10338 0.649259,0.10338 0.87695,0 1.690572,-0.55542 1.979438,-1.43432 0.358006,-1.09238 -0.236035,-2.27011 -1.330562,-2.62832 C 60.872274,42.42352 55.435971,41.70841 49.99981,41.70841 Z M 20.833509,54.1664 c -2.296867,0 -4.166779,1.86991 -4.166779,4.16678 0,2.29686 1.869912,4.16639 4.166779,4.16639 2.296866,0 4.166396,-1.86953 4.166396,-4.16639 0,-2.29687 -1.86953,-4.16678 -4.166396,-4.16678 z"/></svg>