<?xml version="1.0" encoding="iso-8859-1"?>
<!-- Generator: Adobe Illustrator 19.0.0, SVG Export Plug-In . SVG Version: 6.00 Build 0)  -->
<svg version="1.1" id="Capa_1" xmlns="http://www.w3.org/2000/svg" xmlns:xlink="http://www.w3.org/1999/xlink" x="0px" y="0px"
	 viewBox="0 0 512 512" style="enable-background:new 0 0 512 512;" xml:space="preserve">
<path style="fill:#E3E3E3;" d="M501.999,67.293c0-12.959-10.505-23.464-23.464-23.464H33.464C20.505,43.829,10,54.334,10,67.293
	v324.012h491.999V67.293z"/>
<rect x="50.03" y="83.86" style="fill:#54E3E3;" width="411.94" height="307.44"/>
<path style="fill:#5E6E82;" d="M10,391.305v53.401c0,12.959,10.505,23.464,23.464,23.464h445.071
	c12.959,0,23.464-10.505,23.464-23.464v-53.401H10z"/>
<path d="M358.41,440.099c-0.65,0-1.311-0.06-1.95-0.19c-0.641-0.13-1.271-0.32-1.87-0.57c-0.61-0.25-1.19-0.56-1.73-0.92
	c-0.55-0.37-1.06-0.78-1.52-1.25c-0.46-0.46-0.88-0.97-1.24-1.52c-0.359-0.54-0.67-1.12-0.92-1.72s-0.439-1.23-0.57-1.87
	c-0.13-0.65-0.199-1.3-0.199-1.96c0-0.65,0.069-1.31,0.199-1.95c0.131-0.64,0.32-1.27,0.57-1.87s0.561-1.19,0.92-1.73
	c0.36-0.55,0.78-1.06,1.24-1.52s0.97-0.88,1.52-1.24c0.54-0.36,1.12-0.67,1.73-0.92c0.6-0.25,1.229-0.44,1.87-0.57
	c1.29-0.26,2.62-0.26,3.91,0c0.63,0.13,1.26,0.32,1.87,0.57c0.6,0.25,1.18,0.56,1.72,0.92c0.55,0.36,1.06,0.78,1.52,1.24
	s0.88,0.97,1.25,1.52c0.36,0.55,0.67,1.13,0.92,1.73s0.44,1.23,0.57,1.87s0.19,1.3,0.19,1.95c0,0.66-0.061,1.31-0.19,1.96
	c-0.13,0.64-0.32,1.27-0.57,1.87s-0.56,1.18-0.92,1.72c-0.37,0.55-0.79,1.06-1.25,1.52c-0.46,0.47-0.97,0.88-1.52,1.25
	c-0.54,0.36-1.12,0.67-1.72,0.92c-0.61,0.25-1.24,0.44-1.87,0.57C359.719,440.04,359.059,440.099,358.41,440.099z"/>
<path d="M320.379,440.104H153.588c-5.523,0-10-4.477-10-10s4.477-10,10-10H320.38c5.522,0,10,4.477,10,10
	S325.902,440.104,320.379,440.104z"/>
<path d="M177.77,124.77c-0.65,0-1.31-0.07-1.95-0.2s-1.27-0.32-1.87-0.57c-0.61-0.25-1.19-0.56-1.73-0.92
	c-0.55-0.36-1.06-0.78-1.52-1.24s-0.88-0.97-1.24-1.52c-0.36-0.54-0.67-1.12-0.92-1.73c-0.25-0.6-0.45-1.23-0.57-1.87
	c-0.13-0.64-0.2-1.3-0.2-1.95c0-0.65,0.07-1.31,0.2-1.96c0.12-0.64,0.32-1.26,0.57-1.87c0.25-0.6,0.56-1.18,0.92-1.72
	c0.36-0.55,0.78-1.06,1.24-1.52s0.97-0.88,1.52-1.25c0.54-0.36,1.12-0.67,1.73-0.92c0.6-0.25,1.23-0.44,1.87-0.57
	c1.29-0.26,2.62-0.26,3.9,0c0.64,0.13,1.27,0.32,1.87,0.57c0.61,0.25,1.19,0.56,1.73,0.92c0.55,0.37,1.06,0.79,1.52,1.25
	s0.88,0.97,1.24,1.52c0.36,0.54,0.67,1.12,0.92,1.72c0.25,0.61,0.45,1.24,0.58,1.87c0.13,0.65,0.19,1.31,0.19,1.96
	s-0.06,1.31-0.19,1.95s-0.33,1.27-0.58,1.87c-0.25,0.61-0.56,1.19-0.92,1.73c-0.36,0.55-0.78,1.06-1.24,1.52s-0.97,0.88-1.52,1.24
	c-0.54,0.36-1.12,0.67-1.73,0.92c-0.6,0.25-1.23,0.44-1.87,0.57S178.419,124.77,177.77,124.77z"/>
<path d="M334.229,124.767H215.801c-5.523,0-10-4.477-10-10s4.477-10,10-10h118.428c5.522,0,10,4.477,10,10
	S339.751,124.767,334.229,124.767z"/>
<polygon style="fill:#0088BB;" points="365.639,315.559 256,208.047 146.36,315.559 122.55,285.422 256,155.965 389.449,285.422 "/>
<polygon style="fill:#FFDE85;" points="256,208.047 164.099,298.164 164.099,391.305 347.9,391.305 347.9,298.164 "/>
<g>
	<polygon style="fill:#E3E3E3;" points="355.427,252.418 355.427,187.16 321.286,187.16 321.286,219.299 	"/>
	<rect x="222.27" y="320.52" style="fill:#E3E3E3;" width="67.45" height="70.786"/>
</g>
<path d="M478.535,33.829H33.464C15.012,33.829,0,48.841,0,67.293v377.414l0,0c0,18.452,15.012,33.464,33.464,33.464h445.071
	c18.452,0,33.465-15.012,33.465-33.464l0,0V67.293C512,48.841,496.987,33.829,478.535,33.829z M20,67.293
	c0-7.424,6.04-13.464,13.464-13.464h445.071c7.425,0,13.465,6.04,13.465,13.464v314.013h-20.032V83.861c0-5.523-4.478-10-10-10
	H50.032c-5.523,0-10,4.477-10,10v297.444H20V67.293z M279.726,381.305h-47.454V330.52h47.454V381.305z M289.726,310.52h-67.454
	c-5.523,0-10,4.477-10,10v60.786h-38.173v-78.941l81.9-80.311l81.9,80.311v78.941h-38.174V320.52
	C299.726,314.997,295.249,310.52,289.726,310.52z M331.287,215.068V197.16h14.141v31.625L331.287,215.068z M324.418,236.269
	l24.047,23.327c0.001,0.001,0.002,0.002,0.003,0.003l27.535,26.711l-11.31,14.315L263,200.907c-0.243-0.238-0.495-0.462-0.755-0.67
	c-0.412-0.33-0.848-0.612-1.295-0.867c-3.509-2.004-7.966-1.723-11.197,0.867c-0.26,0.209-0.512,0.432-0.755,0.67l-91.9,90.117
	l-0.001,0.001l-9.791,9.601l-11.31-14.315L256,169.898L324.418,236.269z M357.9,321.976l0.738,0.724c1.875,1.839,4.391,2.86,7,2.86
	c0.211,0,0.422-0.007,0.634-0.02c2.832-0.18,5.454-1.554,7.214-3.781l23.81-30.137c3.181-4.025,2.799-9.805-0.884-13.377
	l-30.984-30.057V187.16c0-5.523-4.478-10-10-10h-34.141c-5.522,0-10,4.477-10,10v8.506l-48.324-46.878
	c-3.879-3.763-10.047-3.763-13.926,0l-133.45,129.456c-3.682,3.572-4.064,9.352-0.884,13.377l23.81,30.137
	c1.759,2.227,4.382,3.601,7.214,3.781c2.833,0.178,5.608-0.853,7.634-2.84l0.738-0.723v59.329H60.032V93.861h391.935v287.444H357.9
	V321.976z M492,401.305v43.401c0,7.424-6.04,13.464-13.465,13.464H33.464C26.04,458.17,20,452.13,20,444.706v-43.401H492"/>
<g>
</g>
<g>
</g>
<g>
</g>
<g>
</g>
<g>
</g>
<g>
</g>
<g>
</g>
<g>
</g>
<g>
</g>
<g>
</g>
<g>
</g>
<g>
</g>
<g>
</g>
<g>
</g>
<g>
</g>
</svg>
