<svg xmlns="http://www.w3.org/2000/svg" xmlns:xlink="http://www.w3.org/1999/xlink" version="1.1" x="0px" y="0px" viewBox="0 0 512 640" enable-background="new 0 0 512 512" xml:space="preserve"><g><g><g><path d="M254.767,324.134c-65.541,0-127.135-9.496-168.989-26.054c-3.076-1.217-4.587-4.693-3.377-7.772     c0.622-1.583,1.448-3.913,1.448-5.876c0-7.685-6.295-13.937-14.032-13.937c-4.551,0-8.665,2.298-11.285,6.304     c-0.945,1.444-2.467,2.412-4.177,2.655c-1.707,0.244-3.441-0.263-4.751-1.388C39.395,269.307,34,259.196,34,248.829     c0-21.221,23.79-40.611,66.986-54.601c41.225-13.351,95.838-20.703,153.781-20.703c70.09,0,136.491,11.021,177.624,29.482     c1.484,0.667,2.634,1.907,3.187,3.437s0.46,3.219-0.257,4.68c-0.461,0.94-0.783,2.391-0.783,3.528     c0,4.282,3.369,7.766,7.511,7.766c2.528,0,4.796-1.236,6.065-3.307c0.884-1.441,2.335-2.443,3.996-2.759     c1.657-0.316,3.379,0.084,4.729,1.102C469.553,227.029,476,237.586,476,248.83c0,21.395-23.877,40.85-67.231,54.782     C367.59,316.846,312.897,324.134,254.767,324.134z M95.369,288.894c40.345,14.803,97.987,23.24,159.398,23.24     c56.917,0,110.306-7.084,150.33-19.945C442.53,280.158,464,264.354,464,248.83c0-7.179-4.912-13.563-10.216-18.361     c-3.284,2.533-7.376,3.949-11.736,3.949c-10.758,0-19.511-8.867-19.511-19.766c0-0.903,0.066-1.825,0.194-2.744     c-39.953-16.567-102.15-26.383-167.964-26.383c-56.721,0-110.021,7.146-150.084,20.12C67.938,217.545,46,233.688,46,248.829     c0,5.332,2.456,10.789,7.16,16.003c4.599-4.045,10.477-6.337,16.656-6.337c14.354,0,26.032,11.635,26.032,25.937     C95.848,285.983,95.661,287.482,95.369,288.894z"/></g><g><path d="M254.302,474.132c-0.051,0-0.102-0.001-0.153-0.002c-21.124-0.538-39.566-24.405-53.333-69.023     c-12.94-41.939-20.066-97.44-20.066-156.278c0-79.161,13.492-153.019,35.21-192.752c1.557-2.848,5.095-3.941,7.989-2.468     c1.393,0.71,3.226,1.245,4.264,1.245c4.141,0,7.51-3.484,7.51-7.766c0-2.24-0.795-4.307-2.076-5.393     c-1.343-1.14-2.117-2.812-2.118-4.574s0.773-3.434,2.116-4.575c6.772-5.751,13.681-8.546,21.121-8.546     c21.394,0,40.029,23.599,53.889,68.245c12.979,41.806,20.128,97.416,20.128,156.585c0,44.019-3.908,86.413-11.303,122.602     c-7.369,36.066-17.866,64.315-30.355,81.691c-1.033,1.438-2.648,2.346-4.413,2.48c-1.768,0.137-3.501-0.516-4.74-1.779     c-1.814-1.848-4.567-2.95-7.365-2.95c-6.196,0-11.237,5.187-11.237,11.563c0,1.176,0.368,2.677,0.759,4.266     c0.445,1.816,0.02,3.736-1.153,5.193C257.835,473.311,256.115,474.132,254.302,474.132z M224.134,66.352     C204.707,105.4,192.75,174.515,192.75,248.828c0,57.671,6.937,111.916,19.533,152.741c9.775,31.682,22.526,52.751,35.177,58.786     c1.042-12.021,11.025-21.482,23.147-21.482c3.53,0,6.981,0.815,10.054,2.323c22.06-35.594,36.123-109.841,36.123-192.367     c0-57.996-6.956-112.342-19.588-153.027C285.57,58.355,269.709,36,254.767,35.999c-3.028,0-5.925,0.806-8.877,2.498     c1.193,2.581,1.833,5.511,1.833,8.59c0,10.899-8.752,19.766-19.51,19.766C226.802,66.853,225.411,66.648,224.134,66.352z"/></g><g><path d="M124.435,417.652c-11.014,0-19.703-3.163-25.824-9.4c-15.009-15.292-11.732-45.406,9.476-87.085     c19.92-39.148,53.45-83.695,94.415-125.434C270.159,126.797,343.71,80.48,385.524,80.48c11.042,0,19.744,3.163,25.865,9.4     c14.992,15.275,11.716,45.329-9.477,86.91c-19.861,38.969-53.387,83.574-94.401,125.595     C239.462,371.34,165.899,417.652,124.435,417.652z M385.524,92.48c-38.195,0-109.936,45.916-174.459,111.658     c-40.13,40.889-72.904,84.383-92.284,122.47c-17.849,35.078-22.188,62.457-11.606,73.238c3.78,3.853,9.587,5.806,17.259,5.806     c37.862,0,109.625-45.921,174.513-111.672c40.169-41.156,72.947-84.718,92.274-122.639     c17.829-34.983,22.167-62.293,11.604-73.056C399.045,94.434,393.224,92.48,385.524,92.48z"/></g><g><path d="M385.524,417.652c-41.815,0-115.368-46.317-183.024-115.254c-41.026-42.034-74.552-86.639-94.413-125.608     c-21.192-41.582-24.469-71.635-9.477-86.911c6.121-6.237,14.81-9.399,25.824-9.399c41.464,0,115.028,46.312,183.054,115.242     c40.976,41.75,74.506,86.297,94.427,125.445c21.208,41.68,24.484,71.793,9.476,87.086     C405.269,414.489,396.566,417.652,385.524,417.652z M124.434,92.48c-7.672,0-13.479,1.953-17.259,5.805     c-10.563,10.763-6.225,38.074,11.604,73.057c19.326,37.921,52.104,81.483,92.297,122.664     c64.511,65.731,136.251,111.647,174.448,111.647c7.699,0,13.521-1.953,17.301-5.806c10.581-10.781,6.242-38.159-11.606-73.237     c-19.38-38.088-52.154-81.582-92.284-122.471C234.058,138.4,162.296,92.48,124.434,92.48z"/></g><g><path d="M228.212,66.854c-10.758,0-19.51-8.867-19.51-19.766s8.752-19.766,19.51-19.766s19.51,8.867,19.51,19.766     S238.97,66.854,228.212,66.854z M228.212,39.322c-4.141,0-7.51,3.484-7.51,7.766c0,4.282,3.369,7.766,7.51,7.766     s7.51-3.484,7.51-7.766C235.722,42.806,232.353,39.322,228.212,39.322z"/></g><g><path d="M442.048,234.418c-10.758,0-19.511-8.867-19.511-19.766s8.753-19.766,19.511-19.766s19.51,8.867,19.51,19.766     S452.806,234.418,442.048,234.418z M442.048,206.886c-4.142,0-7.511,3.484-7.511,7.766s3.369,7.766,7.511,7.766     c4.141,0,7.51-3.484,7.51-7.766S446.188,206.886,442.048,206.886z"/></g><g><path d="M270.605,486c-12.813,0-23.236-10.57-23.236-23.563c0-12.992,10.424-23.563,23.236-23.563     c12.596,0,23.237,10.79,23.237,23.563c0.001,6.173-2.429,12.049-6.842,16.545C282.559,483.508,276.736,486,270.605,486z      M270.605,450.874c-6.195,0-11.236,5.187-11.236,11.563S264.41,474,270.605,474c2.883,0,5.664-1.216,7.831-3.424     c2.165-2.206,3.406-5.173,3.406-8.139C281.843,456.277,276.592,450.874,270.605,450.874z"/></g><g><path d="M69.816,310.368L69.816,310.368c-14.098-0.001-25.567-11.637-25.567-25.937c0-14.302,11.469-25.938,25.567-25.938     c14.354,0,26.032,11.636,26.032,25.938S84.17,310.368,69.816,310.368z M69.816,270.494c-7.354,0-13.567,6.383-13.567,13.938     c0,7.554,6.213,13.936,13.567,13.937c7.737,0,14.032-6.252,14.032-13.937C83.848,276.746,77.553,270.494,69.816,270.494z"/></g><g><path d="M254.849,283.531c-18.63,0-33.786-15.53-33.786-34.619c0-18.599,15.472-34.311,33.786-34.311     c18.795,0,34.086,15.392,34.086,34.311C288.936,268.001,273.645,283.531,254.849,283.531z M254.849,226.601     c-11.809,0-21.786,10.217-21.786,22.311c0,12.261,9.977,22.619,21.786,22.619c12.178,0,22.086-10.146,22.086-22.619     C276.936,236.818,266.821,226.601,254.849,226.601z"/></g><g><path d="M70,436c-1.58,0-3.12-0.641-4.24-1.76C64.64,433.13,64,431.58,64,430s0.64-3.13,1.76-4.24c1.11-1.12,2.66-1.76,4.24-1.76     c1.58,0,3.13,0.64,4.24,1.76c1.12,1.11,1.76,2.66,1.76,4.24s-0.64,3.13-1.76,4.24C73.12,435.359,71.58,436,70,436z"/></g><g><path d="M140,456c-1.58,0-3.13-0.641-4.24-1.76c-1.12-1.11-1.76-2.66-1.76-4.24s0.64-3.12,1.76-4.24     c1.11-1.12,2.66-1.76,4.24-1.76c1.58,0,3.13,0.64,4.24,1.76c1.12,1.11,1.76,2.66,1.76,4.24s-0.64,3.13-1.76,4.24     C143.13,455.359,141.58,456,140,456z"/></g><g><path d="M140,56c-1.58,0-3.12-0.64-4.24-1.76C134.64,53.13,134,51.58,134,50c0-1.58,0.64-3.12,1.76-4.24     c1.11-1.12,2.66-1.76,4.24-1.76c1.58,0,3.13,0.64,4.24,1.76c1.12,1.12,1.76,2.66,1.76,4.24c0,1.58-0.64,3.12-1.76,4.24     C143.13,55.36,141.58,56,140,56z"/></g><g><path d="M70,76c-1.58,0-3.12-0.64-4.24-1.76C64.64,73.13,64,71.58,64,70c0-1.58,0.64-3.12,1.76-4.24S68.42,64,70,64     c1.58,0,3.13,0.64,4.24,1.76C75.36,66.88,76,68.42,76,70c0,1.58-0.64,3.13-1.76,4.24C73.13,75.36,71.58,76,70,76z"/></g><g><path d="M450,126c-1.58,0-3.13-0.64-4.24-1.76c-1.12-1.11-1.76-2.66-1.76-4.24c0-1.58,0.64-3.13,1.76-4.24     c1.12-1.12,2.66-1.76,4.24-1.76s3.13,0.64,4.24,1.76c1.119,1.11,1.76,2.66,1.76,4.24c0,1.58-0.641,3.13-1.76,4.24     C453.13,125.36,451.58,126,450,126z"/></g><g><path d="M470,376c-1.58,0-3.13-0.641-4.24-1.76c-1.12-1.11-1.76-2.66-1.76-4.24s0.64-3.13,1.76-4.24     c1.11-1.12,2.66-1.76,4.24-1.76s3.13,0.64,4.24,1.76c1.119,1.11,1.76,2.66,1.76,4.24s-0.641,3.12-1.76,4.24     C473.13,375.359,471.58,376,470,376z"/></g><g><path d="M380,456c-1.58,0-3.13-0.641-4.24-1.76c-1.12-1.11-1.76-2.66-1.76-4.24s0.64-3.13,1.76-4.24     c1.11-1.12,2.66-1.76,4.24-1.76s3.13,0.64,4.24,1.76c1.119,1.12,1.76,2.66,1.76,4.24s-0.641,3.13-1.76,4.24     C383.13,455.359,381.58,456,380,456z"/></g><g><path d="M450,76c-1.58,0-3.12-0.64-4.24-1.76C444.64,73.13,444,71.58,444,70c0-1.58,0.64-3.13,1.76-4.24     c1.11-1.12,2.66-1.76,4.24-1.76s3.13,0.64,4.24,1.76c1.119,1.12,1.76,2.66,1.76,4.24c0,1.58-0.641,3.12-1.76,4.24     C453.13,75.36,451.58,76,450,76z"/></g></g></g></svg>