<svg xmlns="http://www.w3.org/2000/svg" viewBox="0 0 64 80" x="0px" y="0px"><g><path d="M53,2H11a9.01,9.01,0,0,0-9,9V53a9.01,9.01,0,0,0,9,9H53a9.01,9.01,0,0,0,9-9V11A9.01,9.01,0,0,0,53,2Zm7,51a7.008,7.008,0,0,1-7,7H11a7.008,7.008,0,0,1-7-7V11a7.008,7.008,0,0,1,7-7H53a7.008,7.008,0,0,1,7,7Z"/><path d="M57,24a1,1,0,0,0,0-2H42V7a1,1,0,0,0-2,0V22H24V7a1,1,0,0,0-2,0V22H7a1,1,0,0,0,0,2H22V40H7a1,1,0,0,0,0,2H22V57a1,1,0,0,0,2,0V42H40V57a1,1,0,0,0,2,0V42H57a1,1,0,0,0,0-2H42V24ZM40,40H24V24H40Z"/><path d="M15,44a5,5,0,1,0,5,5A5.006,5.006,0,0,0,15,44Zm0,8a3,3,0,1,1,3-3A3,3,0,0,1,15,52Z"/><path d="M49,20a5,5,0,1,0-5-5A5.006,5.006,0,0,0,49,20Zm0-8a3,3,0,1,1-3,3A3,3,0,0,1,49,12Z"/><path d="M30.586,32l-4.293,4.293a1,1,0,1,0,1.414,1.414L32,33.414l4.293,4.293a1,1,0,0,0,1.414-1.414L33.414,32l4.293-4.293a1,1,0,0,0-1.414-1.414L32,30.586l-4.293-4.293a1,1,0,0,0-1.414,1.414Z"/></g></svg>